<svg xmlns="http://www.w3.org/2000/svg" viewBox="0 0 97.06 120.87"><defs><style>.cls-1{fill:#fff;}</style></defs><g id="Camada_2" data-name="Camada 2"><g id="Camada_1-2" data-name="Camada 1"><path class="cls-1" d="M47.59,120.87h-15V84.79L12.49,107.28.73,94.83,27,69.71l-.77-1.38H.85V53.05H27.27L0,27.06,12.07,15.17,31,35.82,32.31,35V.39H47.59V8.68c0,11.83-.25,23.67.12,35.49.16,5.25-.92,9.38-5.25,12.54a17.32,17.32,0,0,0-3.2,3.46s0,1,.21,1.1c7.33,5.14,8.73,12.26,8.29,20.81C47.11,94.85,47.59,107.67,47.59,120.87Z"/><path class="cls-1" d="M74,1.57A13.84,13.84,0,0,1,80.73,0,15.07,15.07,0,0,1,89,2.39,16.31,16.31,0,0,1,94.9,9.22,23.47,23.47,0,0,1,97.06,19.6,23.71,23.71,0,0,1,94.9,30,16.27,16.27,0,0,1,89,36.88a15,15,0,0,1-8.3,2.39A13.66,13.66,0,0,1,74,37.7a11.89,11.89,0,0,1-4.47-4.23V57.1H56.14V.48H69.53V5.81A11.41,11.41,0,0,1,74,1.57Zm7.48,12.19a6.88,6.88,0,0,0-9.9,0,8,8,0,0,0-2,5.8,8.15,8.15,0,0,0,2,5.88,6.56,6.56,0,0,0,5,2.11,6.49,6.49,0,0,0,5-2.15,8.2,8.2,0,0,0,2-5.84A8.07,8.07,0,0,0,81.45,13.76Z"/><path class="cls-1" d="M69.53,108.94h15v11.82H56.14V65.23H69.53Z"/></g></g></svg>