<svg width="264" height="53" viewBox="0 0 264 53" fill="none" xmlns="http://www.w3.org/2000/svg">
<g clip-path="url(#clip0_1_47)">
<path fill-rule="evenodd" clip-rule="evenodd" d="M51.5671 52.0108V0.607422H0V52.0108H51.5671Z" fill="#FBFBFB"/>
<path fill-rule="evenodd" clip-rule="evenodd" d="M14.3227 23.1523H18.6209C19.4732 23.1523 20.2478 23.7013 20.2478 24.6044C20.2478 25.8221 19.277 26.6773 17.9294 26.6773H13.3292L14.3227 23.1523ZM35.4679 23.1763H39.5276C41.4538 23.1763 41.5286 24.4858 41.5286 24.8569C41.5286 25.7262 40.7638 27.4378 38.4256 27.4378H34.2882C34.2882 27.4378 35.4468 23.2793 35.4679 23.1763ZM12.2893 30.3334H16.0061C17.8264 30.3334 17.9294 30.8273 18.1806 31.2478C18.4289 31.6697 18.3132 32.5601 18.1425 32.8649C17.9252 33.2473 17.5569 34.4411 15.2314 34.4411H11.1039L12.2893 30.3334Z" fill="#00923F"/>
<path fill-rule="evenodd" clip-rule="evenodd" d="M51.5671 19.3437V52.0106H0V19.3437H9.92282L4.4252 38.3596H15.6801C20.5554 38.3596 21.4049 37.2209 22.3941 36.3911C23.7163 35.2834 24.4247 32.6461 23.8306 30.8103C23.4101 29.512 22.1838 28.7261 22.0484 28.688C23.5724 27.9824 24.4585 26.4316 24.5672 26.2044C25.133 25.029 25.5705 22.8997 24.165 21.1866C22.9966 19.7628 20.7262 19.3719 19.0794 19.3423H31.1288L25.6114 38.3963H31.1951L33.2341 31.1729H36.4246C38.743 31.1729 38.5314 32.6136 38.5892 33.2373L38.7713 38.5515L43.9556 38.5487C43.9556 38.5487 43.7214 32.584 43.7016 32.1494C43.6325 30.6198 42.6165 29.9283 41.7529 29.9283C43.4138 29.4796 44.8559 27.9711 45.4316 27.0045C46.0963 25.8912 46.5972 24.116 45.9382 22.355C44.9843 19.7981 42.5248 19.3747 40.8061 19.3437H51.5671Z" fill="#00923F"/>
<path fill-rule="evenodd" clip-rule="evenodd" d="M0 13.0984H51.5671V0.607422H0V13.0984Z" fill="#F8C400"/>
<path fill-rule="evenodd" clip-rule="evenodd" d="M132.547 22.1038L133.265 19.6062H115.779L114.375 24.6014H119.988L115.984 38.632H122.212L126.215 24.6014H131.829L132.547 22.1038ZM146.202 19.6062H137.235L132.547 36.1357L131.829 38.6334H138.091L139.938 31.997H141.821C142.983 31.997 143.703 32.1325 144.114 32.4401C144.764 32.9199 144.663 33.8103 144.215 35.3145C144.183 35.4528 144.146 35.5544 144.114 35.656C143.738 37.163 143.565 38.258 143.602 38.632H149.932L150.102 38.0534C149.35 38.0534 149.657 37.2293 150.375 34.7317C151.468 30.8978 150.375 30.418 148.594 29.6659C150.991 29.0506 152.463 27.2021 153.114 25.0121C154.14 21.3178 152.566 19.6062 146.202 19.6062ZM147.057 26.0055C146.713 27.2035 145.724 27.7186 144.114 27.8202H141.101L142.197 24.0215H145.104C146.545 24.0215 147.431 24.6706 147.057 26.0055ZM90.8999 38.632H106.813L108.079 34.1842H98.3942L99.2494 31.2082H107.122L108.388 26.759H100.515L101.304 24.0215H110.578L111.843 19.6062H96.3072L90.8999 38.632ZM84.3299 19.6062H75.1577L69.718 38.632H75.9804L77.6568 32.7124H80.8049C81.1464 32.7124 81.4893 32.7124 81.8308 32.68C86.6906 32.3709 89.5311 29.8747 90.6262 26.0069C91.7212 22.1038 89.8049 19.6062 84.3299 19.6062ZM84.6713 26.0408C84.2268 27.5817 83.1318 28.1955 81.8308 28.2647H78.9225L80.1206 24.0215H81.8999C83.2348 24.0215 85.1511 24.26 84.6713 26.0408ZM232.745 19.6062L232.334 20.2228L220.869 38.0548L220.494 38.6334H226.621L228.057 36.1357H234.286V38.6334H240.514L239.112 19.6076H232.745V19.6062ZM232.334 32.1663H230.384L232.335 28.6739L234.25 25.3211L234.319 32.1663H232.334ZM263.921 25.1165C264.398 21.7976 262.759 19.0925 257.485 19.0925C252.695 19.0925 248.622 21.1118 247.495 25.1842C245.406 32.4401 256.939 30.4547 256.118 33.3629C255.878 34.2533 254.679 34.7656 253.139 34.7656C252.524 34.7656 251.91 34.5948 251.5 34.2886C251.054 33.9443 250.814 33.4645 250.881 32.7816H244.893C244.072 36.2049 246.503 39.1484 251.532 39.1484C256.769 39.1484 261.079 36.9909 262.311 32.5784C264.295 25.6654 252.833 27.4109 253.654 24.5704C253.825 23.886 254.545 23.474 255.947 23.474C256.529 23.474 257.075 23.577 257.452 23.8169C257.827 24.0568 258.07 24.4674 257.964 25.1179H263.921V25.1165ZM192.366 19.6062H183.227L177.819 38.632H187.13C187.54 38.632 187.948 38.632 188.361 38.5995C192.672 38.3596 195.856 36.8187 196.949 32.9199C197.531 30.8328 196.949 29.0535 195.035 28.5384C196.471 27.7863 198.149 26.3498 198.695 24.3983C199.756 20.5996 196.643 19.6062 192.366 19.6062ZM191.27 32.4401C190.894 33.8103 189.766 34.1517 188.361 34.1842H185.349L186.341 30.6946H188.36C190.31 30.6946 191.75 30.7976 191.27 32.4401ZM192.537 25.561C192.228 26.656 191.167 27.2035 189.902 27.2035H187.333L188.223 24.0215H190.415C191.75 24.0215 192.945 24.0554 192.537 25.561ZM168.888 19.0925C167.932 19.0925 166.973 19.1955 166.049 19.4016C161.362 20.4288 157.528 23.9538 156.091 28.9476C154.278 35.4514 157.219 39.1484 163.175 39.1484C164.167 39.1484 165.126 39.044 166.049 38.8394C170.566 37.8135 174.536 34.3916 176.075 29.0168C177.514 23.9862 175.701 19.0925 168.888 19.0925ZM169.814 29.0168C169.128 31.5158 167.899 33.5012 166.049 34.2209C165.569 34.3916 165.057 34.4932 164.508 34.4932C161.532 34.4932 161.634 31.4481 162.354 29.0168C162.902 27.068 164.098 24.8089 166.049 24.0215C166.518 23.8382 167.018 23.7453 167.521 23.7477C170.294 23.68 170.566 26.4175 169.814 29.0168ZM220.869 25.3902C220.938 25.2534 220.973 25.1518 221.007 25.0135C221.418 23.5756 221.418 22.4128 220.869 21.5563C220.05 20.2214 217.961 19.6062 214.094 19.6062H205.093L199.688 38.632H205.917L207.832 31.9956H209.714C210.877 31.9956 211.597 32.1311 212.007 32.4387C212.658 32.9184 212.553 33.8088 212.109 35.3131C212.074 35.4514 212.04 35.553 212.007 35.6546C211.597 37.1616 211.458 38.2566 211.492 38.6306H217.825L217.961 38.052C217.241 38.052 217.55 37.2279 218.27 34.7303C219.363 30.8963 218.27 30.4166 216.489 29.6645C218.749 29.0859 220.221 27.4095 220.869 25.3902ZM214.952 26.0055C214.608 27.2035 213.616 27.7186 212.009 27.8202H208.996L210.09 24.0215H212.999C214.437 24.0215 215.328 24.6706 214.952 26.0055Z" fill="#00923F"/>
</g>
<defs>
<clipPath id="clip0_1_47">
<rect width="264" height="53" fill="white"/>
</clipPath>
</defs>
</svg>
