<svg width="60" height="60" viewBox="0 0 60 60" fill="none" xmlns="http://www.w3.org/2000/svg">
<g clip-path="url(#clip0_1_58)">
<path d="M59.8672 32.8059H0.135315V32.8068H59.8672V32.8059Z" fill="#C42126"/>
<path d="M56.7537 16.4289H3.2464V16.4298H56.7537V16.4289Z" fill="#C42126"/>
<path d="M58.8795 21.8871H1.11865V21.888H58.8795V21.8871Z" fill="#C42126"/>
<path d="M12.894 54.6398H47.1065L47.1083 54.6379H12.8921L12.894 54.6398Z" fill="#C42126"/>
<path d="M29.9998 0C29.4106 0 28.826 0.0212803 28.2457 0.0544675H31.7543C31.1735 0.0212803 30.5891 0 29.9998 0Z" fill="#C42126"/>
<path d="M59.8747 27.3465H0.123901V27.3474H59.8747V27.3465Z" fill="#C42126"/>
<path d="M38.8668 10.9706H53.192C51.4904 8.89923 49.5129 7.06558 47.322 5.51325H36.5651C37.4552 7.07926 38.2206 8.9271 38.8668 10.9706Z" fill="#E7E7E7"/>
<path d="M36.565 5.51325H47.322C42.875 2.36186 37.5361 0.388365 31.7543 0.0544662H30.8306C33.552 0.396978 34.8019 2.41101 36.565 5.51325Z" fill="#DC3027"/>
<path d="M58.8814 21.8876C58.348 19.9853 57.6327 18.1601 56.7536 16.4302H40.273C40.6069 18.1824 40.8704 20.0126 41.0655 21.8876H58.8814Z" fill="#E7E7E7"/>
<path d="M39.3461 16.4293H56.7531C55.7612 14.4782 54.5695 12.6474 53.1919 10.971H37.9861C38.5223 12.6683 38.9776 14.4991 39.3461 16.4293Z" fill="#DC3027"/>
<path d="M41.6965 32.8046H59.8647C59.951 31.8815 59.9998 30.9459 59.9998 30.0004C59.9998 29.1057 59.9529 28.2223 59.8761 27.3469H41.7008C41.76 29.162 41.759 30.9905 41.6965 32.8046Z" fill="#E7E7E7"/>
<path d="M59.8766 27.346C59.7122 25.4715 59.3745 23.6479 58.8814 21.8886H40.3001C40.4867 23.6758 40.6099 25.5042 40.6701 27.346H59.8766Z" fill="#DC3027"/>
<path d="M39.9595 43.7217H56.675C57.5665 41.9937 58.293 40.1671 58.8378 38.2634H40.7677C40.5687 40.1412 40.2986 41.971 39.9595 43.7217Z" fill="#E7E7E7"/>
<path d="M58.8383 38.263C59.3418 36.5042 59.6914 34.6806 59.8652 32.8056H41.1304C41.0665 34.6488 40.9395 36.4768 40.7491 38.263H58.8383Z" fill="#DC3027"/>
<path d="M47.1083 54.6379C49.3309 53.0917 51.3364 51.2562 53.0649 49.1805H38.9894C38.3315 51.2325 37.5503 53.0774 36.6441 54.6379H47.1083Z" fill="#E7E7E7"/>
<path d="M38.4598 49.1801H53.0649C54.4585 47.5057 55.6683 45.6748 56.6748 43.7218H39.8368C39.4631 45.6534 39.0032 47.4851 38.4598 49.1801Z" fill="#DC3027"/>
<path d="M28.9126 59.9787C28.8519 59.9768 28.7914 59.974 28.7307 59.9721C28.7914 59.9739 28.8521 59.9768 28.9126 59.9787Z" fill="#DC3027"/>
<path d="M29.9998 60C36.36 60 42.2531 58.0147 47.1065 54.6398H36.2491C34.3221 57.9597 33.0508 60 29.9998 60Z" fill="#DC3027"/>
<path d="M29.9998 60C29.6355 60 29.2736 59.9915 28.9127 59.9787C29.2774 59.991 29.6397 60 29.9998 60Z" fill="#C42126"/>
<path d="M37.5584 5.51325H12.6785C10.4873 7.06558 8.51009 8.8991 6.80804 10.9706H39.8596C39.2134 8.9271 38.4485 7.07926 37.5584 5.51325Z" fill="#F3F4F5"/>
<path d="M12.6785 5.51325H37.5584C35.7949 2.41101 33.552 0.396978 30.8306 0.0544662H28.2457C22.4639 0.388365 17.125 2.36186 12.6785 5.51325Z" fill="#E73625"/>
<path d="M1.11914 21.8876H42.0116C41.8164 20.0122 41.553 18.1824 41.2191 16.4302H3.24692C2.36771 18.1602 1.65254 19.9853 1.11914 21.8876Z" fill="#F3F4F5"/>
<path d="M6.80803 10.9706C5.43152 12.647 4.23881 14.4777 3.24738 16.4289H41.2191C40.851 14.4991 40.3959 12.6684 39.8595 10.9706H6.80803Z" fill="#E73625"/>
<path d="M0.000244141 30.0004C0.000244141 30.9459 0.0495182 31.8815 0.135273 32.8046H42.3781C42.4407 30.9904 42.4416 29.1624 42.3824 27.3472H0.123873C0.0471115 28.2223 0.000244141 29.1057 0.000244141 30.0004Z" fill="#F3F4F5"/>
<path d="M0.123901 27.346H42.3819C42.3218 25.5038 42.1981 23.6759 42.0119 21.8886H1.11863C0.625509 23.6483 0.287811 25.4715 0.123901 27.346Z" fill="#E73625"/>
<path d="M41.9968 38.263H1.16217C1.70697 40.1672 2.43405 41.9933 3.32504 43.7213H41.1887C41.5279 41.971 41.7973 40.1411 41.9968 38.263Z" fill="#F3F4F5"/>
<path d="M1.16216 38.263H41.9968C42.1868 36.4768 42.3141 34.6483 42.3781 32.8056H0.135254C0.309043 34.681 0.659155 36.5042 1.16216 38.263Z" fill="#E73625"/>
<path d="M12.8921 54.6379H37.4669C38.3731 53.0771 39.1547 51.2325 39.8122 49.1805H6.93549C8.66401 51.2562 10.669 53.0917 12.8921 54.6379Z" fill="#F3F4F5"/>
<path d="M3.32556 43.7217C4.3322 45.6747 5.54188 47.5055 6.93549 49.18H39.8122C40.3551 47.4851 40.815 45.6534 41.1887 43.7217H3.32556Z" fill="#E73625"/>
<path d="M28.7307 59.972C28.7914 59.9739 28.8519 59.9767 28.9126 59.9786C29.2736 59.9914 29.6355 59.9999 29.9997 59.9999C33.0508 59.9999 35.5385 57.9598 37.4659 54.6396H12.894C17.422 57.7889 22.8571 59.7272 28.7307 59.972Z" fill="#E73625"/>
<path d="M29.3796 0.0155792C14.0063 0.328324 1.4762 12.1983 0.127686 27.2971H29.3802V0.0155792H29.3796Z" fill="#283991"/>
<path d="M6.00284 16.9973L6.45986 18.4046H7.94062L6.74272 19.2748L7.20024 20.6831L6.00284 19.8124L4.80583 20.6831L5.26247 19.2748L4.06494 18.4046H5.5457L6.00284 16.9973Z" fill="#EFEFEF"/>
<path d="M6.00284 21.9691L6.45986 23.3773H7.94062L6.74272 24.2475L7.20024 25.6558L6.00284 24.7851L4.80583 25.6558L5.26247 24.2475L4.06494 23.3773H5.5457L6.00284 21.9691Z" fill="#EFEFEF"/>
<path d="M10.9756 9.53764L11.4327 10.9454H12.913L11.7155 11.8162L12.1726 13.2234L10.9756 12.3537L9.77805 13.2234L10.2352 11.8162L9.03717 10.9454H10.5179L10.9756 9.53764Z" fill="#EFEFEF"/>
<path d="M10.9756 14.5104L11.4327 15.9182H12.913L11.7155 16.7879L12.1726 18.1962L10.9756 17.3265L9.77805 18.1962L10.2352 16.7879L9.03717 15.9182H10.5179L10.9756 14.5104Z" fill="#EFEFEF"/>
<path d="M10.9756 19.4831L11.4327 20.8914H12.913L11.7155 21.7606L12.1726 23.169L10.9756 22.2984L9.77805 23.169L10.2352 21.7606L9.03717 20.8914H10.5179L10.9756 19.4831Z" fill="#EFEFEF"/>
<path d="M2.2275 23.169L1.76997 21.7607L2.96749 20.8909H1.48763L1.45444 20.7882C1.29192 21.2908 1.14511 21.7995 1.0097 22.3139L1.0306 22.2984L2.2275 23.169Z" fill="#EFEFEF"/>
<path d="M4.80584 15.7103L6.00286 14.8397L7.20039 15.7103L6.74286 14.302L7.94038 13.4314H6.45963L6.00248 12.0241L5.54533 13.4314H4.99965C4.89831 13.5849 4.80027 13.7394 4.70172 13.8952L5.26261 14.302L4.80584 15.7103Z" fill="#EFEFEF"/>
<path d="M10.9756 7.38098L12.1727 8.25068L11.7155 6.84339L12.9125 5.9728H12.0575C11.3313 6.5157 10.6307 7.09027 9.9576 7.69651L9.7771 8.25068L10.9756 7.38098Z" fill="#EFEFEF"/>
<path d="M14.7509 5.76481L15.9484 4.89422L17.1454 5.76481L16.6882 4.35651L17.8853 3.48681H16.405L16.343 3.29731C15.8413 3.55356 15.3449 3.8202 14.8598 4.10394L15.2075 4.35639L14.7509 5.76481Z" fill="#EFEFEF"/>
<path d="M15.9484 7.05177L16.4055 8.45867H17.8858L16.6882 9.32927L17.1454 10.7376L15.9484 9.86685L14.7508 10.7376L15.208 9.32927L14.0101 8.45867H15.4907L15.9484 7.05177Z" fill="#EFEFEF"/>
<path d="M15.9484 12.0245L16.4055 13.4314H17.8858L16.6882 14.302L17.1454 15.7103L15.9484 14.8396L14.7508 15.7103L15.208 14.302L14.0101 13.4314H15.4907L15.9484 12.0245Z" fill="#EFEFEF"/>
<path d="M15.9484 16.9973L16.4055 18.4046H17.8858L16.6882 19.2748L17.1454 20.6831L15.9484 19.8124L14.7508 20.6831L15.208 19.2748L14.0101 18.4046H15.4907L15.9484 16.9973Z" fill="#EFEFEF"/>
<path d="M15.9484 21.9691L16.4055 23.3773H17.8858L16.6882 24.2475L17.1454 25.6558L15.9484 24.7851L14.7508 25.6558L15.208 24.2475L14.0101 23.3773H15.4907L15.9484 21.9691Z" fill="#EFEFEF"/>
<path d="M20.9211 4.56488L21.3783 5.97268H22.8585L21.6615 6.8434L22.1182 8.25068L20.9211 7.38098L19.7232 8.25068L20.1808 6.8434L18.9828 5.97268H20.4635L20.9211 4.56488Z" fill="#EFEFEF"/>
<path d="M20.9211 9.53764L21.3783 10.9454H22.8585L21.6615 11.8162L22.1182 13.2234L20.9211 12.3537L19.7232 13.2234L20.1808 11.8162L18.9828 10.9454H20.4635L20.9211 9.53764Z" fill="#EFEFEF"/>
<path d="M20.9211 14.5104L21.3783 15.9182H22.8585L21.6615 16.7879L22.1182 18.1962L20.9211 17.3265L19.7232 18.1962L20.1808 16.7879L18.9828 15.9182H20.4635L20.9211 14.5104Z" fill="#EFEFEF"/>
<path d="M20.9211 19.4831L21.3783 20.8914H22.8585L21.6615 21.7606L22.1182 23.169L20.9211 22.2984L19.7232 23.169L20.1808 21.7606L18.9828 20.8914H20.4635L20.9211 19.4831Z" fill="#EFEFEF"/>
<path d="M25.8938 2.07901L26.351 3.4868H27.8312L26.6337 4.35651L27.0909 5.76481L25.8938 4.89409L24.6959 5.76481L25.1535 4.35651L23.9556 3.4868H25.4358L25.8938 2.07901Z" fill="#EFEFEF"/>
<path d="M25.8938 7.05177L26.351 8.45867H27.8312L26.6337 9.32927L27.0909 10.7376L25.8938 9.86685L24.6959 10.7376L25.1535 9.32927L23.9556 8.45867H25.4358L25.8938 7.05177Z" fill="#EFEFEF"/>
<path d="M25.8938 12.0245L26.351 13.4314H27.8312L26.6337 14.302L27.0909 15.7103L25.8938 14.8396L24.6959 15.7103L25.1535 14.302L23.9556 13.4314H25.4358L25.8938 12.0245Z" fill="#EFEFEF"/>
<path d="M25.8938 16.9973L26.351 18.4046H27.8312L26.6337 19.2748L27.0909 20.6831L25.8938 19.8124L24.6959 20.6831L25.1535 19.2748L23.9556 18.4046H25.4358L25.8938 16.9973Z" fill="#EFEFEF"/>
<path d="M25.8938 21.9691L26.351 23.3773H27.8312L26.6337 24.2475L27.0909 25.6558L25.8938 24.7851L24.6959 25.6558L25.1535 24.2475L23.9556 23.3773H25.4358L25.8938 21.9691Z" fill="#EFEFEF"/>
</g>
<defs>
<clipPath id="clip0_1_58">
<rect width="60" height="60" fill="white"/>
</clipPath>
</defs>
</svg>
