<svg width="91" height="90" viewBox="0 0 91 90" fill="none" xmlns="http://www.w3.org/2000/svg">
<g clip-path="url(#clip0_613_172)">
<path d="M45.394 17.9097C38.2893 17.9097 23.1225 43.3322 23.1225 55.1726C23.1225 64.322 28.4259 72.2009 36.6238 75.6581V87.9638C36.6238 88.787 37.1176 89.4349 37.9414 89.4349H52.8465C53.6705 89.4349 54.5099 88.787 54.5099 87.9638V75.6581C62.3352 72.2009 67.838 64.322 67.838 55.1726C67.838 43.3322 52.4987 17.9097 45.394 17.9097ZM51.5289 86.454H39.6049V76.7169C41.4681 77.2432 43.5022 77.5303 45.567 77.5303C47.6319 77.5303 49.2933 77.2432 51.5291 76.7169V86.454H51.5289ZM45.394 74.5492C34.71 74.5492 26.0174 65.8572 26.0174 55.1726C26.0174 43.5578 40.8177 20.8908 45.394 20.8908C49.9704 20.8908 64.7706 43.5578 64.7706 55.1726C64.7706 65.8572 56.0779 74.5492 45.394 74.5492Z" fill="#F16C1F"/>
<path d="M41.3605 67.163C36.9284 65.7991 34.0288 63.4061 32.7391 60.0495C29.6955 52.1232 36.1729 41.1437 36.2384 41.033C36.6619 40.3271 36.4321 39.4123 35.726 38.9895C35.0202 38.5644 34.106 38.7958 33.6823 39.5004C33.3825 39.9997 26.3942 51.8219 29.9531 61.1092C31.5848 65.369 35.1291 68.3637 40.4842 70.0116C40.6297 70.0566 40.7783 70.0784 40.9224 70.0784C41.5599 70.0784 42.1495 69.6665 42.3474 69.0252C42.589 68.2387 42.1481 67.4045 41.3605 67.163Z" fill="#F16C1F"/>
<path d="M18.5648 49.1909H6.6406C5.81668 49.1909 5.15012 49.8584 5.15012 50.6814C5.15012 51.5044 5.81686 52.1719 6.6406 52.1719H18.5646C19.3885 52.1719 20.0551 51.5044 20.0551 50.6814C20.0551 49.8584 19.3885 49.1909 18.5648 49.1909Z" fill="#F16C1F"/>
<path d="M22.2125 37.4435L10.2885 31.4815C9.55188 31.1125 8.65829 31.4109 8.28842 32.1482C7.92012 32.8846 8.21857 33.78 8.95517 34.1482L20.8794 40.1103C21.0933 40.2174 21.3205 40.2675 21.5445 40.2675C22.0918 40.2675 22.6173 39.9663 22.8792 39.4436C23.2474 38.707 22.9489 37.8118 22.2125 37.4435Z" fill="#F16C1F"/>
<path d="M26.7568 25.5589L16.3232 19.5968C15.6071 19.1871 14.6974 19.4359 14.2898 20.1514C13.8808 20.866 14.1297 21.7765 14.8445 22.1848L25.278 28.1469C25.511 28.2802 25.7656 28.3434 26.016 28.3434C26.5341 28.3434 27.0364 28.0741 27.3114 27.5923C27.7204 26.8775 27.4714 25.9672 26.7568 25.5589Z" fill="#F16C1F"/>
<path d="M36.2937 18.7335L30.3316 6.80931C29.9619 6.07271 29.0696 5.77444 28.3316 6.14256C27.595 6.51086 27.2967 7.40602 27.6648 8.14262L33.6269 20.0666C33.8889 20.5891 34.4144 20.8906 34.9616 20.8906C35.1859 20.8906 35.4129 20.8404 35.6268 20.7334C36.3636 20.3653 36.6619 19.4701 36.2937 18.7335Z" fill="#F16C1F"/>
<path d="M75.0078 20.1514C74.5988 19.4359 73.689 19.1871 72.9744 19.5968L62.5409 25.5589C61.8261 25.9672 61.5773 26.8777 61.9862 27.5923C62.2613 28.0741 62.7635 28.3434 63.2817 28.3434C63.5321 28.3434 63.7867 28.2802 64.0197 28.1469L74.4532 22.1848C75.168 21.7765 75.4168 20.866 75.0078 20.1514Z" fill="#F16C1F"/>
<path d="M62.4564 6.14264C61.7213 5.77434 60.8262 6.07279 60.4563 6.80938L54.4942 18.7336C54.1259 19.47 54.4243 20.3653 55.1609 20.7336C55.3749 20.8407 55.6021 20.8908 55.8261 20.8908C56.3734 20.8908 56.8989 20.5896 57.1608 20.0669L63.1229 8.14287C63.4912 7.4061 63.1928 6.51094 62.4564 6.14264Z" fill="#F16C1F"/>
<path d="M45.5669 0.0234375C44.743 0.0234375 44.0764 0.69088 44.0764 1.51392V13.4379C44.0764 14.2612 44.7431 14.9284 45.5669 14.9284C46.3906 14.9284 47.0573 14.261 47.0573 13.4379V1.51392C47.0573 0.69088 46.3906 0.0234375 45.5669 0.0234375Z" fill="#F16C1F"/>
<path d="M81.0092 32.1481C80.6395 31.4108 79.7444 31.1126 79.0092 31.4814L67.085 37.4435C66.3484 37.8118 66.0501 38.7069 66.4182 39.4435C66.6802 39.966 67.2056 40.2674 67.7529 40.2674C67.9772 40.2674 68.2042 40.2173 68.4181 40.1103L80.3421 34.1482C81.0791 33.7797 81.3773 32.8845 81.0092 32.1481Z" fill="#F16C1F"/>
<path d="M84.1474 49.1909H72.2233C71.3994 49.1909 70.7328 49.8584 70.7328 50.6814C70.7328 51.5044 71.3996 52.1719 72.2233 52.1719H84.1474C84.9713 52.1719 85.6378 51.5044 85.6378 50.6814C85.6378 49.8584 84.9713 49.1909 84.1474 49.1909Z" fill="#F16C1F"/>
</g>
<defs>
<clipPath id="clip0_613_172">
<rect width="89.4114" height="89.4114" fill="white" transform="translate(0.688293 0.0234375)"/>
</clipPath>
</defs>
</svg>
