<svg width="90" height="90" viewBox="0 0 90 90" fill="none" xmlns="http://www.w3.org/2000/svg">
<g clip-path="url(#clip0_613_221)">
<path d="M20.8627 59.6073C20.8627 58.7848 20.1951 58.1172 19.3725 58.1172C18.55 58.1172 17.8824 58.7848 17.8824 59.6073C17.0599 59.6073 16.3923 60.2749 16.3923 61.0975C16.3923 61.92 17.0599 62.5876 17.8824 62.5876C17.8824 63.4101 18.55 64.0777 19.3725 64.0777C20.1951 64.0777 20.8627 63.4101 20.8627 62.5876C21.6852 62.5876 22.3528 61.92 22.3528 61.0975C22.3528 60.2749 21.6852 59.6073 20.8627 59.6073Z" fill="#F16C1F"/>
<path d="M7.45101 53.6468H5.96088V52.1566C5.96088 51.3341 5.29326 50.6665 4.47074 50.6665C3.64823 50.6665 2.98061 51.3341 2.98061 52.1566V53.6468H1.49013C0.667617 53.6468 0 54.3144 0 55.1369C0 55.9594 0.667617 56.627 1.49013 56.627H2.98026V58.1172C2.98026 58.9397 3.64788 59.6073 4.47039 59.6073C5.29291 59.6073 5.96053 58.9397 5.96053 58.1172V56.627H7.45066C8.27317 56.627 8.94079 55.9594 8.94079 55.1369C8.94079 54.3144 8.27352 53.6468 7.45101 53.6468Z" fill="#F16C1F"/>
<path d="M73.0178 32.7839C73.1385 32.7839 73.2592 32.7704 73.3814 32.7392C79.8742 31.1163 83.4507 26.8976 83.4507 20.8623V10.431C83.4507 7.96627 81.4449 5.96045 78.9801 5.96045H75.9997C75.1772 5.96045 74.5095 6.62807 74.5095 7.45058C74.5095 8.2731 75.1772 8.94071 75.9997 8.94071H78.9801C79.8012 8.94071 80.4702 9.60973 80.4702 10.4308V20.8621C80.4702 25.5279 77.8415 28.5515 72.6572 29.848C71.86 30.0476 71.3742 30.8568 71.5738 31.6556C71.7437 32.3324 72.3502 32.7839 73.0178 32.7839Z" fill="#F16C1F"/>
<path d="M52.0644 80.4702H37.2549C36.4324 80.4702 35.7648 81.1378 35.7648 81.9604C35.7648 82.7829 36.4324 83.4505 37.2549 83.4505H52.0644C52.8869 83.4505 53.5545 82.7829 53.5545 81.9604C53.5545 81.1378 52.8869 80.4702 52.0644 80.4702Z" fill="#F16C1F"/>
<path d="M17.8376 31.6562C18.0372 30.8575 17.5515 30.0484 16.7541 29.8486C11.5699 28.5522 8.94113 25.5286 8.94113 20.8628V10.4313C8.94113 9.61021 9.61015 8.9412 10.4313 8.9412H13.4117C14.2342 8.9412 14.9018 8.27358 14.9018 7.45107C14.9018 6.62855 14.2342 5.96094 13.4117 5.96094H10.4313C7.96651 5.96094 5.96069 7.96676 5.96069 10.4315V20.8628C5.96069 26.898 9.53715 31.1168 16.03 32.7396C16.1522 32.7709 16.2729 32.7844 16.3935 32.7844C17.0612 32.7842 17.6676 32.3328 17.8376 31.6562Z" fill="#F16C1F"/>
<path d="M62.5433 75.6374C62.3779 74.9743 61.7817 74.5093 61.0979 74.5093H28.1274C27.4434 74.5093 26.8474 74.9742 26.682 75.6374L23.7015 87.559C23.5898 88.0046 23.6897 88.477 23.9727 88.8376C24.2544 89.1998 24.688 89.4113 25.147 89.4113H64.0781C64.5371 89.4113 64.9707 89.1996 65.2523 88.8376C65.5354 88.477 65.6353 88.0046 65.5235 87.559L62.5433 75.6374ZM27.0559 86.4309L29.2911 77.4897H59.9339L62.1692 86.4309H27.0559Z" fill="#F16C1F"/>
<path d="M78.9801 68.5486H77.4899V67.0585C77.4899 66.236 76.8223 65.5684 75.9998 65.5684C75.1773 65.5684 74.5097 66.236 74.5097 67.0585V68.5486H73.0196C72.197 68.5486 71.5294 69.2162 71.5294 70.0388C71.5294 70.8613 72.197 71.5289 73.0196 71.5289H74.5097V73.019C74.5097 73.8415 75.1773 74.5091 75.9998 74.5091C76.8223 74.5091 77.4899 73.8415 77.4899 73.019V71.5291H78.9801C79.8026 71.5291 80.4702 70.8614 80.4702 70.0389C80.4702 69.2164 79.8026 68.5486 78.9801 68.5486Z" fill="#F16C1F"/>
<path d="M87.9213 38.745H84.9408V35.7645C84.9408 34.942 84.2732 34.2744 83.4507 34.2744C82.6282 34.2744 81.9606 34.942 81.9606 35.7645V38.745H78.9801C78.1576 38.745 77.49 39.4126 77.49 40.2351C77.49 41.0576 78.1576 41.7252 78.9801 41.7252H81.9606V44.7057C81.9606 45.5282 82.6282 46.1958 83.4507 46.1958C84.2732 46.1958 84.9408 45.5282 84.9408 44.7057V41.7252H87.9213C88.7438 41.7252 89.4114 41.0576 89.4114 40.2351C89.4114 39.4126 88.7438 38.745 87.9213 38.745Z" fill="#F16C1F"/>
<path d="M71.5291 1.49013C71.5291 0.667617 70.8615 0 70.039 0H19.3724C18.5499 0 17.8823 0.667617 17.8823 1.49013V7.45083C17.8823 25.4777 20.8924 31.7037 20.9834 31.8809C22.6806 35.8403 25.1723 38.5704 27.5804 41.2125C31.7903 45.8261 35.7645 50.1835 35.7645 61.0977C35.7645 61.1378 35.7333 65.1643 33.0345 69.2117C32.5786 69.8972 32.7633 70.8227 33.4474 71.2787C34.1314 71.7346 35.0568 71.5499 35.5143 70.8659C38.7092 66.0748 38.745 61.2988 38.745 61.0977C38.745 49.0287 34.188 44.0335 29.7829 39.2037C27.4374 36.6332 25.2215 34.2042 23.6895 30.6367C23.6612 30.5785 20.8625 24.5909 20.8625 7.45083V2.98026H68.5487V7.45083C68.5487 24.5909 65.75 30.5785 65.6891 30.7067C64.1899 34.2042 61.974 36.6332 59.6285 39.2037C55.2234 44.0335 50.6666 49.0285 50.6666 61.0977C50.6666 61.2988 50.7024 66.0748 53.8972 70.8659C54.1849 71.2965 54.6572 71.5289 55.1385 71.5289C55.4216 71.5289 55.7092 71.4484 55.964 71.2785C56.648 70.8225 56.8328 69.8972 56.3768 69.2116C53.7034 65.2015 53.6468 61.1333 53.6468 61.0975C53.6468 50.1834 57.6211 45.826 61.8309 41.2124C64.2391 38.5702 66.7307 35.8402 68.3922 31.9599C68.5188 31.7035 71.5291 25.4775 71.5291 7.45066V1.49013Z" fill="#F16C1F"/>
<path d="M37.7494 30.9125C38.0281 31.1644 38.3842 31.2941 38.7448 31.2941C38.9818 31.2941 39.2188 31.2375 39.4362 31.1242L44.8127 28.3048L49.9523 31.1107C50.4933 31.4073 51.1609 31.3372 51.6318 30.9394C52.1012 30.5401 52.277 29.8918 52.0713 29.3092L50.2696 24.192L54.6106 20.5097C55.0875 20.1044 55.2604 19.4457 55.0458 18.8586C54.8298 18.2729 54.271 17.8826 53.6465 17.8826H48.3667L46.0627 12.7966C45.8214 12.2631 45.2909 11.9219 44.7052 11.9219H44.7022C44.1151 11.9234 43.5845 12.2676 43.3446 12.8025L41.0706 17.8826H35.7645C35.1312 17.8826 34.568 18.2834 34.3579 18.8795C34.1492 19.4771 34.3401 20.1418 34.8348 20.5366L39.3754 24.1653L37.3591 29.2558C37.131 29.8352 37.2861 30.4953 37.7494 30.9125ZM42.0368 20.8628C42.6239 20.8628 43.156 20.5186 43.3973 19.9822L44.7132 17.0405L46.0498 19.9881C46.2898 20.5216 46.8217 20.8628 47.4074 20.8628H49.5875L47.5609 22.5824C47.0899 22.9818 46.9127 23.6301 47.1184 24.2142L47.9708 26.6328L45.5432 25.3065C45.3197 25.1858 45.0738 25.1247 44.8279 25.1247C44.591 25.1247 44.3526 25.1813 44.1366 25.2946L41.6077 26.6194L42.5525 24.2365C42.7938 23.6271 42.6091 22.9326 42.0965 22.5243L40.0177 20.8627H42.0368V20.8628Z" fill="#F16C1F"/>
</g>
<defs>
<clipPath id="clip0_613_221">
<rect width="89.4114" height="89.4114" fill="white"/>
</clipPath>
</defs>
</svg>
