<svg width="60" height="60" viewBox="0 0 60 60" fill="none" xmlns="http://www.w3.org/2000/svg">
<g clip-path="url(#clip0_1_116)">
<path d="M30 60C46.5685 60 60 46.5685 60 30C60 13.4315 46.5685 0 30 0C13.4315 0 0 13.4315 0 30C0 46.5685 13.4315 60 30 60Z" fill="#00C85F"/>
<path d="M28.8524 12.1748L3.36017 29.1697C2.74599 29.5793 2.74599 30.4818 3.36017 30.8912L28.8524 47.886C29.5474 48.3493 30.4527 48.3493 31.1477 47.886L56.6399 30.8912C57.2541 30.4816 57.2541 29.5792 56.6399 29.1697L31.1477 12.1748C30.4527 11.7115 29.5474 11.7115 28.8524 12.1748Z" fill="#FFF046"/>
<path d="M30 42.4138C36.8559 42.4138 42.4138 36.8559 42.4138 30C42.4138 23.1441 36.8559 17.5862 30 17.5862C23.144 17.5862 17.5862 23.1441 17.5862 30C17.5862 36.8559 23.144 42.4138 30 42.4138Z" fill="#4B82E1"/>
<path d="M19.3963 23.5696C18.9897 24.2386 18.646 24.9478 18.37 25.692C24.1362 25.3 33.3895 26.327 41.5149 34.6229C41.8046 33.9021 42.031 33.1499 42.1819 32.3695C34.2299 24.7433 25.399 23.3739 19.3963 23.5696Z" fill="white"/>
</g>
<defs>
<clipPath id="clip0_1_116">
<rect width="60" height="60" fill="white"/>
</clipPath>
</defs>
</svg>
