<svg width="1681" height="562" viewBox="0 0 1681 562" fill="none" xmlns="http://www.w3.org/2000/svg">
<path d="M35.0335 501.161V222.749H106.738V248.615H66.2471V475.295H106.738V501.161H35.0335ZM257.813 454.668V482.389H115.823V454.668H257.813ZM338.602 222.749V501.161H266.898V475.295H307.389V248.615H266.898V222.749H338.602ZM458.355 361.901C458.355 389.331 454.753 414.542 447.55 437.534C440.347 460.525 429.833 481.735 416.009 501.161H386.105C391.489 493.958 396.509 485.118 401.166 474.641C405.823 464.163 409.897 452.704 413.39 440.262C416.882 427.747 419.61 414.796 421.575 401.409C423.539 388.021 424.522 374.852 424.522 361.901C424.522 344.657 422.812 327.158 419.392 309.405C415.972 291.652 411.352 275.172 405.532 259.965C399.711 244.758 393.235 232.353 386.105 222.749H416.009C429.833 242.176 440.347 263.385 447.55 286.377C454.753 309.368 458.355 334.543 458.355 361.901Z" fill="#2196F3"/>
<path d="M156.959 278.085C156.959 263.837 158.84 250.748 162.601 238.818C166.4 226.85 172.043 215.794 179.528 205.649H198.962C196.074 209.411 193.376 214.027 190.869 219.498C188.361 224.931 186.177 230.896 184.315 237.393C182.491 243.852 181.047 250.558 179.983 257.511C178.958 264.464 178.445 271.322 178.445 278.085C178.445 287.09 179.338 296.209 181.123 305.441C182.947 314.674 185.398 323.223 188.475 331.087C191.591 338.99 195.086 345.449 198.962 350.464H179.528C172.043 340.32 166.4 329.283 162.601 317.352C158.84 305.384 156.959 292.295 156.959 278.085Z" fill="#2196F3"/>
<path d="M227.349 107.412C227.349 121.622 225.449 134.711 221.649 146.679C217.888 158.609 212.265 169.647 204.78 179.791H185.346C188.271 176.03 190.969 171.433 193.439 165.999C195.946 160.566 198.112 154.601 199.936 148.104C201.797 141.607 203.241 134.882 204.267 127.929C205.331 120.976 205.863 114.137 205.863 107.412C205.863 98.4075 204.951 89.2889 203.127 80.0563C201.341 70.8237 198.891 62.256 195.775 54.3532C192.698 46.4504 189.221 39.9913 185.346 34.9761H204.78C212.265 45.1206 217.888 56.1769 221.649 68.1451C225.449 80.0753 227.349 93.1643 227.349 107.412Z" fill="#2196F3"/>
<path d="M603.55 521.727V279.5H644.032V312.35H644.695C648.014 300.847 653.876 291.998 662.282 285.805C670.909 279.389 681.527 276.182 694.136 276.182C712.055 276.182 726.433 282.486 737.273 295.095C748.333 307.705 753.864 324.627 753.864 345.864V395.305C753.864 416.762 748.333 433.795 737.273 446.405C726.433 459.014 712.055 465.318 694.136 465.318C681.748 465.318 671.241 462.221 662.614 456.027C653.986 449.612 648.014 440.653 644.695 429.15H644.032L645.027 470.627V521.727H603.55ZM678.873 429.482C689.491 429.482 697.676 426.385 703.427 420.191C709.4 413.997 712.386 405.148 712.386 393.645V347.855C712.386 336.351 709.4 327.503 703.427 321.309C697.676 315.115 689.491 312.018 678.873 312.018C668.255 312.018 659.959 315.226 653.986 321.641C648.014 328.056 645.027 337.126 645.027 348.85V392.65C645.027 404.374 648.014 413.444 653.986 419.859C659.959 426.274 668.255 429.482 678.873 429.482ZM858.257 465.318C848.745 465.318 841.113 462.553 835.361 457.023C829.831 451.492 827.066 443.971 827.066 434.459C827.066 424.947 829.831 417.426 835.361 411.895C841.113 406.144 848.745 403.268 858.257 403.268C867.769 403.268 875.29 406.144 880.82 411.895C886.572 417.426 889.448 424.947 889.448 434.459C889.448 443.971 886.572 451.492 880.82 457.023C875.29 462.553 867.769 465.318 858.257 465.318ZM1068.5 462C1050.36 462 1035.76 456.58 1024.7 445.741C1013.86 434.902 1008.44 420.633 1008.44 402.936V257.268H948.382V219.773H1049.92V401.941C1049.92 408.798 1051.8 414.329 1055.56 418.532C1059.54 422.514 1064.85 424.505 1071.49 424.505H1124.91V462H1068.5ZM1219.68 465.318C1196.45 465.318 1178.2 458.903 1164.93 446.073C1151.66 433.021 1145.02 415.324 1145.02 392.982V279.5H1186.5V392.65C1186.5 404.374 1189.37 413.444 1195.12 419.859C1200.88 426.053 1209.06 429.15 1219.68 429.15C1230.08 429.15 1238.15 426.053 1243.9 419.859C1249.87 413.444 1252.86 404.374 1252.86 392.65V279.5H1294.34V392.982C1294.34 415.324 1287.59 433.021 1274.1 446.073C1260.6 458.903 1242.46 465.318 1219.68 465.318ZM1401.39 465.318C1385.9 465.318 1372.3 462.442 1360.57 456.691C1349.07 450.718 1340.11 442.423 1333.7 431.805C1327.28 420.965 1324.07 408.245 1324.07 393.645V347.855C1324.07 333.255 1327.28 320.645 1333.7 310.027C1340.11 299.188 1349.07 290.892 1360.57 285.141C1372.3 279.168 1385.9 276.182 1401.39 276.182C1424.39 276.182 1442.75 282.155 1456.47 294.1C1470.18 305.824 1477.37 321.862 1478.04 342.214H1437.55C1436.89 332.701 1433.24 325.401 1426.6 320.314C1420.19 315.005 1411.78 312.35 1401.39 312.35C1390.33 312.35 1381.59 315.447 1375.17 321.641C1368.76 327.614 1365.55 336.241 1365.55 347.523V393.645C1365.55 404.927 1368.76 413.665 1375.17 419.859C1381.59 426.053 1390.33 429.15 1401.39 429.15C1412 429.15 1420.52 426.606 1426.94 421.518C1433.35 416.209 1436.89 408.798 1437.55 399.286H1478.04C1477.37 419.638 1470.18 435.786 1456.47 447.732C1442.75 459.456 1424.39 465.318 1401.39 465.318ZM1574.13 464.986C1560.2 464.986 1547.92 462.885 1537.3 458.682C1526.68 454.258 1518.39 448.064 1512.42 440.1C1506.66 432.136 1503.79 422.735 1503.79 411.895H1545.6C1545.6 418.311 1548.14 423.288 1553.23 426.827C1558.54 430.145 1565.62 431.805 1574.47 431.805H1588.73C1599.13 431.805 1606.87 429.924 1611.96 426.164C1617.05 422.403 1619.59 417.205 1619.59 410.568C1619.59 397.959 1610.19 390.217 1591.39 387.341L1565.84 384.023C1527.57 378.492 1508.43 360.242 1508.43 329.273C1508.43 312.018 1514.19 298.967 1525.69 290.118C1537.41 281.048 1554.34 276.514 1576.46 276.514H1589.07C1609.64 276.514 1626.12 281.159 1638.51 290.45C1651.12 299.52 1657.42 311.576 1657.42 326.618H1615.61C1615.61 321.309 1613.29 317.217 1608.64 314.341C1604 311.244 1597.36 309.695 1588.73 309.695H1576.12C1557.99 309.695 1548.92 316.221 1548.92 329.273C1548.92 340.555 1556.99 347.412 1573.14 349.845L1599.02 353.827C1619.59 356.703 1634.86 362.676 1644.81 371.745C1654.99 380.815 1660.07 393.424 1660.07 409.573C1660.07 427.048 1653.99 440.653 1641.82 450.386C1629.88 460.12 1612.18 464.986 1588.73 464.986H1574.13Z" fill="white"/>
</svg>
