<svg width="89" height="85" viewBox="0 0 89 85" fill="none" xmlns="http://www.w3.org/2000/svg">
<path d="M45.489 2.99749L54.079 29.435C54.639 31.1582 56.2448 32.3249 58.0567 32.3249H85.8548C87.0001 32.3249 87.4763 33.7906 86.5497 34.4638L64.0606 50.8031C62.5947 51.8681 61.9814 53.7559 62.5413 55.4791L71.1314 81.9166C71.4853 83.0059 70.2385 83.9118 69.3119 83.2385L46.8228 66.8992C45.357 65.8342 43.372 65.8342 41.9062 66.8992L19.4171 83.2385C18.4905 83.9118 17.2437 83.0059 17.5976 81.9166L26.1877 55.4791C26.7476 53.7559 26.1343 51.8681 24.6684 50.8031L2.17929 34.4638C1.25268 33.7906 1.72889 32.3249 2.87426 32.3249H30.6723C32.4842 32.3249 34.09 31.1582 34.65 29.435L43.24 2.99749C43.594 1.90819 45.135 1.90818 45.489 2.99749Z" stroke="#F16C1F" stroke-width="3"/>
</svg>
