<svg width="60" height="60" viewBox="0 0 60 60" fill="none" xmlns="http://www.w3.org/2000/svg">
<path d="M1.875 30C1.875 35.5313 3.46875 40.6875 6.1875 45H53.7187C56.4375 40.6875 58.0313 35.5313 58.0313 30C58.0313 24.4687 56.4375 19.3125 53.7187 15H6.1875C3.46875 19.3125 1.875 24.4687 1.875 30Z" fill="#FFCE31"/>
<path d="M53.8125 15C48.8438 7.125 40.0312 1.875 30 1.875C19.9687 1.875 11.1563 7.125 6.1875 15H53.8125Z" fill="#ED4C5C"/>
<path d="M6.1875 45C11.1563 52.875 19.9687 58.125 30 58.125C40.0312 58.125 48.8438 52.875 53.8125 45H6.1875Z" fill="#ED4C5C"/>
<path d="M8.625 26.9062H11.625V28.5937H8.625V26.9062Z" fill="#C8B100"/>
<path d="M8.625 39.2812H11.7188V40.875H8.625V39.2812Z" fill="#C8B100"/>
<path d="M8.34375 36.6562C8.0625 36.8437 7.875 37.0312 7.875 37.125C7.875 37.2187 7.96875 37.3125 8.15625 37.4062C8.34375 37.5 8.53125 37.6875 8.4375 37.875C8.625 37.6875 8.71875 37.5 8.71875 37.3125C8.71875 37.0312 8.53125 36.75 8.34375 36.6562Z" fill="#ED4C5C"/>
<path d="M9.09375 28.5938H11.25V39.2813H9.09375V28.5938Z" fill="white"/>
<path d="M13.5 32.5313C13.0312 32.3438 12.1875 32.1562 11.25 32.1562C10.9687 32.1562 10.5937 32.1563 10.2187 32.25C8.90622 32.4375 7.87497 33 7.96872 33.375L7.49997 32.3438C7.40622 31.875 8.53122 31.3125 9.93747 31.0312C10.4062 30.9375 10.875 30.9375 11.25 30.9375C12.1875 30.9375 13.0312 31.0312 13.5 31.2187V32.5313Z" fill="#ED4C5C"/>
<path d="M9.09375 33.9375C8.53125 33.9375 8.0625 33.75 8.0625 33.4688C8.0625 33.2813 8.25 33 8.625 32.8125H9.1875L9.09375 33.9375Z" fill="#ED4C5C"/>
<path d="M11.25 33.0938C11.625 33.1875 11.9062 33.2812 12.0937 33.375C12.1875 33.4687 11.8125 33.8438 11.25 34.125V33.0938Z" fill="#ED4C5C"/>
<path d="M7.68746 36C7.59371 35.8125 8.24996 35.4375 9.09371 35.1562C9.46871 35.0625 9.74996 34.875 10.2187 34.6875C11.3437 34.2187 12.2812 33.5625 12.0937 33.375L12.2812 34.5C12.375 34.6875 11.625 35.25 10.5 35.8125C10.125 36 9.46871 36.2812 9.09371 36.375C8.43746 36.5625 7.87496 36.9375 7.87496 37.0312L7.68746 36Z" fill="#ED4C5C"/>
<path d="M28.7812 26.9062H31.7813V28.5937H28.7812V26.9062Z" fill="#C8B100"/>
<path d="M28.6875 39.2812H31.7813V40.875H28.6875V39.2812Z" fill="#C8B100"/>
<path d="M32.0625 36.6562C32.3438 36.8437 32.5313 37.0312 32.5313 37.125C32.5313 37.2187 32.4375 37.3125 32.25 37.4062C32.0625 37.5937 31.875 37.875 31.9687 37.9687C31.7812 37.7812 31.6875 37.5937 31.6875 37.4062C31.6875 37.0312 31.875 36.75 32.0625 36.6562Z" fill="#ED4C5C"/>
<path d="M29.1562 28.5938H31.3125V39.2813H29.1562V28.5938Z" fill="white"/>
<path d="M26.9062 32.5313C27.375 32.3438 28.2187 32.1562 29.1562 32.1562C29.4375 32.1562 29.8125 32.1563 30.1875 32.25C31.5 32.4375 32.5312 33 32.4375 33.375L32.9062 32.25C33 31.7813 31.875 31.2188 30.4687 30.9375H29.1562C28.2187 30.9375 27.375 31.0312 26.9062 31.2187V32.5313Z" fill="#ED4C5C"/>
<path d="M31.3125 33.9375C31.875 33.9375 32.3438 33.75 32.3438 33.4688C32.3438 33.2813 32.1563 33 31.7813 32.8125H31.2188L31.3125 33.9375Z" fill="#ED4C5C"/>
<path d="M29.1563 33.0938C28.7813 33.1875 28.5 33.2812 28.3125 33.375C28.2188 33.4687 28.5938 33.8438 29.1563 34.125V33.0938Z" fill="#ED4C5C"/>
<path d="M32.7188 36C32.8125 35.8125 32.1563 35.4375 31.3125 35.1563C30.9375 35.0625 30.6563 34.875 30.1875 34.6875C29.0625 34.2188 28.125 33.5625 28.3125 33.375L28.125 34.5C28.0313 34.6875 28.7813 35.25 29.9063 35.8125C30.2813 36 30.9375 36.2813 31.3125 36.375C31.9688 36.5625 32.5313 37.0312 32.4375 37.125L32.7188 36Z" fill="#ED4C5C"/>
<path d="M20.1562 20.9062C21.9375 20.9062 25.5937 21.2813 26.9062 22.5938C25.5 25.9688 23.25 24.5625 20.1562 24.5625C17.1562 24.5625 14.8125 25.9688 13.4062 22.5938C14.7187 21.2813 18.2812 20.9062 20.1562 20.9062Z" fill="#ED4C5C"/>
<path d="M24.75 24.6562C23.625 24 21.9375 23.9062 20.1562 23.9062C18.375 23.9062 16.6875 24.0937 15.5625 24.6562L15.9375 26.25C16.9687 26.5313 18.4687 26.7188 20.1562 26.7188C21.8437 26.7188 23.25 26.5313 24.375 26.25L24.75 24.6562Z" fill="#C8B100"/>
<path d="M26.3438 20.625C25.9688 20.3437 25.2188 20.0625 24.5625 20.0625C24.2813 20.0625 24 20.0625 23.7188 20.1562C23.7188 20.1562 23.1562 19.4063 21.8438 19.4063C21.375 19.4063 21 19.5 20.625 19.6875V19.5937C20.5313 19.4062 20.3438 19.2188 20.1563 19.2188C19.9688 19.2188 19.6875 19.5 19.6875 19.6875V19.7813C19.3125 19.5938 18.9375 19.5 18.4688 19.5C17.1563 19.5 16.5938 20.3438 16.5938 20.25C16.3125 20.1563 16.0312 20.1562 15.75 20.1562C11.4375 20.1562 13.5938 23.0625 13.5938 23.0625L14.0625 22.5C13.0313 21.1875 13.9687 20.4375 15.8437 20.4375C16.125 20.4375 16.3125 20.4375 16.5 20.5312C15.8438 21.4687 17.0625 22.3125 17.0625 22.3125L17.3438 21.8437C16.6875 21.375 16.5938 19.7813 18.4688 19.7813C18.9375 19.7813 19.3125 19.875 19.6875 20.1562C19.6875 20.25 19.5937 21.5625 19.5 21.75L20.25 22.4062L21 21.75C20.9063 21.4688 20.8125 20.25 20.8125 20.1562C21.0938 19.9687 21.5625 19.7813 22.0313 19.7813C24 19.7813 24 21.375 23.1563 21.8437L23.4375 22.3125C23.4375 22.3125 24.4688 21.4687 24 20.5312C24.1875 20.5312 24.4687 20.4375 24.6562 20.4375C26.9063 20.4375 27 22.125 26.4375 22.5L26.8125 23.0625C26.625 23.0625 27.6563 21.75 26.3438 20.625Z" fill="#C8B100"/>
<path d="M19.5938 18.8438C19.5938 18.5625 19.875 18.2812 20.1563 18.2812C20.5313 18.2812 20.7188 18.5625 20.7188 18.8438C20.7188 19.125 20.4375 19.4063 20.1563 19.4063C19.875 19.4063 19.5938 19.125 19.5938 18.8438Z" fill="#005BBF"/>
<path d="M19.9687 17.25V17.5313H19.6875V17.8125H19.9687V18.75H19.5938V19.0312H20.7188L20.8125 18.8438L20.7188 18.75H20.3438V17.8125H20.625V17.5313H20.3438V17.25H19.9687Z" fill="#C8B100"/>
<path d="M20.1563 26.5312C18.6563 26.5312 17.3438 26.3438 16.3125 26.0625C17.3438 25.7812 18.6563 25.5938 20.1563 25.5938C21.6563 25.5938 22.9688 25.7812 24 26.0625C23.0625 26.3438 21.6563 26.5312 20.1563 26.5312Z" fill="#ED4C5C"/>
<path d="M20.25 42.75C18.4688 42.75 16.7812 42.2812 15.2812 41.625C14.1562 41.0625 13.5 40.0312 13.5 38.8125V34.3125H27V38.8125C27 40.0312 26.25 41.1562 25.2188 41.625C23.7187 42.375 22.0313 42.75 20.25 42.75Z" fill="white"/>
<path d="M20.1562 26.8125H26.9063V34.3125H20.1562V26.8125Z" fill="white"/>
<path d="M20.25 38.8125C20.25 40.5937 18.75 42 16.875 42C15 42 13.5 40.5937 13.5 38.8125V34.3125H20.25V38.8125Z" fill="#ED4C5C"/>
<path d="M14.9062 41.4375C15.0938 41.5313 15.375 41.7188 15.75 41.8125V34.125H15L14.9062 41.4375Z" fill="#C8B100"/>
<path d="M13.4062 38.7188C13.4062 39.6563 13.7813 40.4063 14.1563 40.7813V34.125H13.4062V38.7188Z" fill="#C8B100"/>
<path d="M16.4062 42H17.1562V34.125H16.4062V42Z" fill="#C7B500"/>
<path d="M17.9062 41.8125C18.1875 41.7188 18.5625 41.5313 18.75 41.4375V34.125H18L17.9062 41.8125Z" fill="#C8B100"/>
<path d="M13.4062 26.8125H20.1562V34.3125H13.4062V26.8125Z" fill="#ED4C5C"/>
<path d="M19.5 40.7812C19.875 40.5 20.1563 39.8438 20.25 39.0938V34.2188H19.5V40.7812Z" fill="#C8B100"/>
<path d="M27 34.3125V38.8125C27 40.5938 25.5 42 23.625 42C21.75 42 20.25 40.5938 20.25 38.8125V34.3125H27Z" fill="#ED4C5C"/>
<path d="M24.5625 28.125C24.8437 28.6875 24.8437 30.0938 24 29.8125C24.1875 29.9063 24.2812 30.5625 24.5625 30.9375C25.0312 31.5 25.5937 31.0313 25.5 30.375C25.3125 29.3438 25.4062 28.6875 25.5937 27.6563C25.5937 27.75 26.0625 27.75 26.25 27.5625C26.1562 27.8438 26.0625 28.2188 26.25 28.2188C26.0625 28.5 25.5937 28.9688 25.5 29.25C25.4062 29.9063 26.4375 31.125 25.3125 31.4063C24.5625 31.5938 25.0312 32.1563 25.3125 32.4375C25.3125 32.4375 24.9375 33.6563 25.125 33.5625C24.375 33.8438 24.5625 33.1875 24.5625 33.1875C24.9375 32.0625 23.9062 31.9688 24 31.7813C23.0625 31.6875 24.0937 32.625 23.25 32.625C23.0625 32.625 22.6875 32.8125 22.6875 32.8125C21.6562 32.7188 22.2187 31.7813 22.5937 31.875C22.875 31.9688 23.1562 32.4375 23.1562 31.7813C23.1562 31.7813 22.6875 31.0313 23.9062 31.0313C23.4375 31.0313 23.1562 30.6563 22.9687 30.1875C22.7812 30.2813 22.5 30.75 21.4687 30.8438C21.4687 30.8438 21.1875 29.8125 21.4687 30C21.8437 30.1875 22.0312 30.1875 22.4062 29.8125C22.2187 29.5313 21.0937 29.1563 21.2812 28.5C21.2812 28.3125 21.8437 28.0313 21.8437 28.0313C21.75 28.5 22.0312 28.9688 22.5937 28.9688C23.3437 29.0625 23.0625 28.7813 23.1562 28.5938C23.25 28.4063 23.8125 28.6875 23.625 28.2188C23.625 28.125 22.9687 28.0313 23.1562 27.75C23.5312 27.2813 24.0937 27.6563 24.5625 28.125Z" fill="#ED4C5C"/>
<path d="M20.25 41.8125L20.0625 41.3438L20.25 40.7813L20.4375 41.3438L20.25 41.8125Z" fill="#ED4C5C"/>
<path d="M15.4688 28.4062V28.875H15.6563V29.25H15.1875V30.1875H15.4688V32.25H14.9062V33.2812H18.75V32.25H18.2813V30.1875H18.4688V29.25H18V28.875H18.2813V28.4062H17.3438V28.875H17.5313V29.25H17.0625V28.125H17.3438V27.6562H16.3125V28.125H16.5938V29.25H16.125V28.875H16.3125V28.4062H15.4688Z" fill="#C8B100"/>
<path d="M26.0625 39.9375V35.25H21.1875V39.9375L23.4375 40.9687H23.7187L26.0625 39.9375ZM23.4375 35.625V37.2187L21.8437 35.625H23.4375ZM21.4687 35.7187L23.3437 37.5937L21.4687 39.4687V35.7187ZM21.6562 39.8437L23.4375 38.0625V40.6875L21.6562 39.8437ZM23.7187 40.5937V37.9687L25.5 39.75L23.7187 40.5937ZM25.6875 39.4687L23.8125 37.5937L25.6875 35.7187V39.4687ZM23.7187 35.625H25.3125L23.7187 37.2187V35.625Z" fill="#C8B100"/>
<path d="M18 34.2187C18 32.8125 18.9375 31.7812 20.1562 31.7812C21.375 31.7812 22.3125 32.9062 22.3125 34.2187C22.3125 35.5312 21.375 36.6562 20.1562 36.6562C18.9375 36.6562 18 35.625 18 34.2187Z" fill="#ED4C5C"/>
<path d="M18.6562 34.2187C18.6562 33.1875 19.3125 32.4375 20.1563 32.4375C21 32.4375 21.6563 33.2812 21.6563 34.2187C21.6563 35.25 21 36 20.1563 36C19.4063 36.0937 18.6562 35.25 18.6562 34.2187Z" fill="#005BBF"/>
<path d="M19.5 33L19.125 34.0312L19.4063 34.125L19.2188 34.5H19.7813L19.5938 34.125L19.875 34.0312L19.5 33Z" fill="#C8B100"/>
<path d="M20.9062 33L20.5312 34.0312L20.8125 34.125L20.625 34.5H21.1875L21.0938 34.125L21.375 34.0312L20.9062 33Z" fill="#C8B100"/>
<path d="M20.25 34.2188L19.7812 35.25L20.0625 35.3438L19.9687 35.7187H20.4375L20.3438 35.3438L20.625 35.25L20.25 34.2188Z" fill="#C8B100"/>
</svg>
