<svg width="247" height="42" viewBox="0 0 247 42" fill="none" xmlns="http://www.w3.org/2000/svg">
<g clip-path="url(#clip0_1_6)">
<path d="M15.8241 1.13409C7.23159 2.47071 0.548538 10.1085 0.357593 18.8283L0.293945 23.0291H8.88644H17.4789V21.4378C17.4789 19.8466 17.4153 19.8466 10.8595 19.6557L4.30378 19.4648L4.74931 17.1098C5.57674 12.5271 8.6955 8.58093 13.0236 6.54419C16.206 5.01663 22.1253 5.08028 25.3077 6.73513C27.9809 8.13539 31.4179 11.636 32.118 13.7364C32.4363 14.7548 33.0727 15.073 34.7276 15.073C37.4645 15.073 37.5918 13.8637 35.1095 9.91754C30.7814 3.10719 23.7165 -0.0752231 15.8241 1.13409Z" fill="#1E1E1E"/>
<path d="M111.36 14.4364V23.9836H113.588H115.815V14.4364V4.88921H113.588H111.36V14.4364Z" fill="#1E1E1E"/>
<path d="M47.6482 7.37156C44.2112 10.8086 45.9297 14.6911 51.8489 16.7915C53.822 17.5553 55.095 18.3827 55.2223 19.1465C55.4132 20.1648 55.095 20.2285 52.0399 19.9739C50.1941 19.8466 48.0301 19.4647 47.2663 19.2101C45.9297 18.7646 45.8024 18.9555 45.8024 20.7377C45.8024 22.4562 46.1206 22.9017 48.0301 23.7291C52.3581 25.5113 59.0412 24.4293 60.0595 21.756C60.6324 20.1648 60.5051 17.6826 59.7413 16.2186C59.3594 15.5185 57.1954 14.1183 54.9041 13.0999C52.5491 11.9542 50.8942 10.8722 51.0852 10.4267C51.3398 9.59924 54.7131 9.4083 57.45 10.1721C59.0412 10.6176 59.1685 10.4903 59.1685 8.77182C59.1685 6.28954 57.7046 5.52576 53.1219 5.52576C50.0031 5.52576 49.303 5.78035 47.6482 7.37156Z" fill="#1E1E1E"/>
<path d="M140.638 6.6715C139.429 7.24433 137.774 8.77189 136.946 9.9812C134.082 14.182 135.864 21.056 140.383 23.2837C142.866 24.5566 148.467 24.4293 150.504 23.0927C156.295 19.2738 155.977 9.47202 149.931 6.73515C146.621 5.27124 143.502 5.20759 140.638 6.6715ZM148.594 10.9359C150.313 12.5908 150.758 16.0278 149.549 18.2555C148.721 19.8467 145.412 20.865 143.566 20.1649C138.092 18.1282 139.365 9.34472 145.093 9.34472C146.303 9.34472 147.639 9.91755 148.594 10.9359Z" fill="#0C89B5"/>
<path d="M161.642 5.97122C160.114 6.54405 159.096 8.19891 159.096 10.1083C159.096 11.254 158.778 11.8905 158.141 11.8905C157.568 11.8905 157.187 12.4633 157.187 13.4817C157.187 14.5001 157.568 15.0729 158.141 15.0729C158.905 15.0729 159.096 15.964 159.096 19.5283V23.9836H161.005H162.915V19.5283C162.915 15.2002 162.979 15.0729 164.506 15.0729C165.779 15.0729 166.097 14.7547 166.097 13.4817C166.097 12.2087 165.779 11.8905 164.442 11.8905C163.106 11.8905 162.851 11.6359 163.042 10.4266C163.17 9.40822 163.742 8.96268 165.015 8.83539C166.479 8.64444 166.797 8.3262 166.607 7.24418C166.479 6.16216 165.906 5.84392 164.506 5.71663C163.488 5.65298 162.151 5.78028 161.642 5.97122Z" fill="#0C89B5"/>
<path d="M171.507 7.11689C170.616 7.94431 169.916 9.40822 169.916 10.2993C169.916 11.3177 169.534 11.8905 168.961 11.8905C168.389 11.8905 168.007 12.4633 168.007 13.4817C168.007 14.5001 168.389 15.0729 168.961 15.0729C169.725 15.0729 169.916 15.964 169.916 19.5283V23.9836H171.826H173.735V19.5283V15.0729H175.645C177.236 15.0729 177.554 14.8183 177.554 13.4817C177.554 12.1451 177.236 11.8905 175.645 11.8905C174.499 11.8905 173.735 11.5723 173.735 11.0631C173.735 9.85376 175.072 8.70809 176.408 8.70809C177.236 8.70809 177.554 8.19891 177.554 7.11689C177.554 5.71663 177.299 5.52568 175.326 5.52568C173.735 5.52568 172.526 6.03487 171.507 7.11689Z" fill="#0C89B5"/>
<path d="M192.511 15.0729V23.9836H194.548H196.585L196.776 19.7829C196.903 16.6641 197.221 15.3275 198.049 14.882C200.022 13.609 201.104 15.3911 201.104 19.9102V23.9836H203.013H204.986L204.795 18.8281C204.604 13.9909 204.477 13.5453 202.886 12.336C201.358 11.1904 200.849 11.1267 198.876 11.6996L196.648 12.3997V9.28093C196.648 6.16217 196.648 6.16217 194.612 6.16217H192.511V15.0729Z" fill="#0C89B5"/>
<path d="M62.6054 12.2088C62.3509 12.7179 62.3509 15.2002 62.4781 17.6825C62.6691 21.565 62.9237 22.3925 64.2603 23.4745C65.406 24.4292 66.3607 24.6201 68.0792 24.3019C69.2885 24.111 71.5162 23.9837 73.0437 23.9837L75.7806 24.0473L75.5897 17.8098L75.3987 11.5723L73.362 11.3813L71.2616 11.1904V15.6458C71.2616 19.9102 71.1979 20.1648 69.734 20.5467C67.2518 21.1195 66.8062 20.4194 66.8062 15.6458V11.254H64.8968C63.7511 11.254 62.7964 11.6359 62.6054 12.2088Z" fill="#1E1E1E"/>
<path d="M78.7084 11.6997C78.4539 11.8907 78.2629 16.2187 78.2629 21.247V30.3486H80.4906H82.7183V26.848C82.7183 23.5383 82.7819 23.3473 83.9276 23.9838C87.3646 25.766 91.1835 24.0475 92.3291 20.2286C94.1113 14.182 88.9558 9.21746 83.8003 11.9543C82.7819 12.5272 82.4 12.5272 82.2091 11.9543C81.9545 11.1905 79.4086 10.9996 78.7084 11.6997ZM87.8738 16.4097C88.8921 18.3191 87.6828 20.8014 85.7097 20.8014C83.8639 20.8014 82.7183 19.7194 82.7183 17.9372C82.7183 15.0731 86.5372 13.9274 87.8738 16.4097Z" fill="#1E1E1E"/>
<path d="M95.066 12.0814C94.9387 12.527 94.8751 16.7914 94.9387 21.5014L95.1297 30.0302L97.2301 30.2212L99.2668 30.4121V26.8478C99.2668 23.5381 99.3304 23.3472 100.476 23.9836C102.067 24.8111 104.741 24.8111 106.332 23.9836C107.859 23.1562 109.45 20.1011 109.45 17.9371C109.45 15.773 107.859 12.7179 106.332 11.8905C104.677 11.0631 102.067 11.0631 100.349 11.9542C99.3304 12.527 98.9486 12.527 98.7576 11.9542C98.4394 10.9994 95.5116 11.0631 95.066 12.0814ZM104.422 16.4095C105.441 18.319 104.231 20.8012 102.258 20.8012C100.412 20.8012 99.2668 19.7192 99.2668 17.9371C99.2668 15.0729 103.086 13.9272 104.422 16.4095Z" fill="#1E1E1E"/>
<path d="M117.725 11.5724C117.725 11.7634 119.061 14.8185 120.653 18.3191C123.771 25.1295 123.771 26.5297 120.525 26.5297C119.252 26.5297 118.998 26.848 118.998 28.4392C118.998 30.2213 119.189 30.3486 121.162 30.3486C124.726 30.3486 126.317 28.3755 129.5 19.8467C131.091 15.6459 132.364 12.018 132.364 11.6997C132.364 10.936 128.736 11.1905 128.036 12.018C127.717 12.4635 127.017 14.0547 126.572 15.5186C126.19 17.0462 125.617 18.2555 125.363 18.2555C125.108 18.2555 124.344 16.7279 123.644 14.8821C122.435 11.827 122.18 11.5724 120.016 11.3815C118.743 11.2542 117.725 11.3178 117.725 11.5724Z" fill="#1E1E1E"/>
<path d="M181.564 11.8907C180.8 12.209 179.845 13.0364 179.463 13.7365C178.445 15.7096 179.654 17.4918 183.028 18.892C186.91 20.5469 186.719 21.6925 182.582 21.3106C179.654 20.9924 179.4 21.0561 179.591 22.329C179.845 24.1748 183.473 24.9386 186.783 23.8566C188.883 23.1564 189.393 22.7109 189.52 21.247C189.774 19.2103 188.183 16.9826 186.465 16.9826C185.892 16.9826 184.874 16.537 184.173 16.0279C182.455 14.6912 184.046 13.7365 186.719 14.5003C187.801 14.8185 188.756 15.0731 188.82 15.0731C188.947 15.0731 189.011 14.5003 189.011 13.8002C189.011 11.6998 184.81 10.6178 181.564 11.8907Z" fill="#0C89B5"/>
<path d="M211.606 11.827C209.187 12.909 207.787 15.0731 207.787 17.9372C207.787 20.9923 208.805 22.5199 211.797 23.7928C218.48 26.5934 224.463 19.0829 219.753 13.8001C217.843 11.6997 214.024 10.745 211.606 11.827ZM216.698 17.9372C216.698 20.4195 216.634 20.4831 214.47 20.4831C212.497 20.4831 212.242 20.2922 212.051 18.701C211.733 15.7732 212.306 14.9458 214.597 15.2003C216.57 15.3913 216.698 15.5186 216.698 17.9372Z" fill="#0C89B5"/>
<path d="M229.427 12.2724C228.218 12.9089 227.454 12.9725 227.327 12.5906C227.2 12.2087 226.372 11.8905 225.545 11.8905C224.017 11.8905 224.017 11.9541 224.017 17.9371V23.9836H225.927C227.709 23.9836 227.772 23.92 227.963 20.2921C228.154 16.9187 228.282 16.6005 230.191 15.7094C231.782 14.9456 232.291 14.3728 232.291 12.9725C232.291 10.9994 232.037 10.9358 229.427 12.2724Z" fill="#0C89B5"/>
<path d="M237.256 12.2725C234.965 13.4818 234.201 15.0094 234.201 18.2554C234.201 22.5835 238.338 25.1931 243.557 24.2383C245.021 23.9837 245.657 23.4746 245.657 22.6471C245.657 21.6288 245.212 21.4378 243.048 21.4378C240.375 21.4378 238.02 20.5467 238.02 19.5284C238.02 19.1465 239.865 18.8919 242.157 18.8919H246.294V16.7915C246.23 14.3092 245.212 12.7817 242.857 11.8906C240.566 11.0632 239.356 11.1268 237.256 12.2725ZM241.457 14.1819C242.03 14.3729 242.475 15.1367 242.475 15.7731C242.475 16.7279 242.03 16.9824 240.247 16.9824C237.765 16.9824 237.192 15.6458 239.165 14.5002C240.502 13.6727 240.247 13.7364 241.457 14.1819Z" fill="#0C89B5"/>
<path d="M20.3431 21.4378C20.3431 23.029 20.3431 23.029 26.517 23.029H32.7545L32.6908 25.4476C32.5635 28.821 29.5084 33.4037 26.0078 35.6313C21.807 38.1773 17.1607 38.5592 12.8326 36.7134C9.52291 35.3131 5.06754 30.985 5.06754 29.2665C5.06754 28.7573 4.24012 28.4391 2.77621 28.4391C0.739472 28.4391 0.548528 28.5664 0.994065 29.8394C2.39432 34.5493 8.24995 39.7685 13.5327 41.2324C17.6699 42.3144 23.4619 41.6143 27.3444 39.5139C32.9454 36.4588 36.2551 31.176 36.7643 24.4929L37.0826 20.2285L28.681 20.0376L20.3431 19.8466V21.4378Z" fill="#0C89B5"/>
<path d="M132.682 28.6936C130.836 30.5394 130.582 33.7855 132.046 35.8859C133.7 38.2408 140.002 38.6227 140.002 36.3314C140.002 35.6949 139.238 35.4403 137.456 35.4403C134.401 35.4403 133.064 33.7218 134.21 31.2395C134.719 30.0302 135.355 29.712 137.201 29.712C138.983 29.712 139.429 29.521 139.238 28.5663C139.111 27.8025 138.347 27.4207 136.692 27.2934C134.846 27.1024 133.955 27.4207 132.682 28.6936Z" fill="#1E1E1E"/>
<path d="M166.225 28.2481C166.352 28.8846 166.861 29.3938 167.37 29.3938C167.879 29.3938 168.389 28.8846 168.516 28.2481C168.643 27.4844 168.325 27.1661 167.37 27.1661C166.416 27.1661 166.097 27.4844 166.225 28.2481Z" fill="#1E1E1E"/>
<path d="M175.645 29.012C175.645 30.8578 175.517 30.9851 174.053 30.6032C170.68 29.7757 168.452 34.5493 171.062 36.9043C171.889 37.6681 173.162 37.9227 175.072 37.7954L177.872 37.6681V32.5763C177.872 28.2482 177.681 27.4844 176.79 27.2935C175.899 27.1025 175.645 27.4844 175.645 29.012ZM175.008 33.2127C175.963 34.3584 175.39 36.0769 174.053 36.0769C172.908 36.0769 172.144 34.5493 172.717 33.2127C173.162 32.0034 173.99 32.0034 175.008 33.2127Z" fill="#1E1E1E"/>
<path d="M196.776 28.2481C196.903 28.8846 197.412 29.3938 197.921 29.3938C198.431 29.3938 198.94 28.8846 199.067 28.2481C199.194 27.4844 198.876 27.1661 197.921 27.1661C196.967 27.1661 196.648 27.4844 196.776 28.2481Z" fill="#1E1E1E"/>
<path d="M215.743 29.3938C215.743 30.7941 215.488 30.985 213.515 30.985C211.224 30.985 210.015 32.258 210.015 34.7403C210.015 36.5224 212.751 38.3046 214.215 37.4771C214.788 37.1589 215.807 37.0316 216.443 37.1589C217.525 37.4771 217.652 37.0316 217.652 32.6399C217.652 28.7574 217.461 27.8026 216.698 27.8026C216.125 27.8026 215.743 28.3755 215.743 29.3938ZM215.425 34.1674C215.425 35.1858 215.043 35.8223 214.215 35.9496C212.624 36.2678 211.733 35.1858 212.242 33.531C212.879 31.5579 215.425 32.0034 215.425 34.1674Z" fill="#0C89B5"/>
<path d="M200.595 30.1576C200.085 31.3033 200.022 32.0671 200.467 32.5126C200.786 32.8308 201.104 33.9128 201.104 34.8039C201.104 36.8407 202.186 37.9863 204.095 37.9863C205.75 37.9863 206.132 36.3951 204.604 35.8223C204.095 35.6313 203.65 34.8676 203.65 34.1674C203.65 33.4673 204.095 32.8945 204.604 32.8945C205.114 32.8945 205.559 32.5126 205.559 32.0034C205.559 31.4942 205.114 30.985 204.604 30.7304C204.095 30.5395 203.65 29.9667 203.65 29.3938C203.65 27.8026 201.486 28.3118 200.595 30.1576Z" fill="#1E1E1E"/>
<path d="M141.911 31.6215C141.211 32.3216 140.638 33.4673 140.638 34.1674C140.638 35.9496 142.866 37.9863 144.775 37.9863C146.685 37.9863 148.912 35.9496 148.912 34.1674C148.912 32.3853 146.685 30.3486 144.775 30.3486C143.884 30.3486 142.611 30.9214 141.911 31.6215ZM146.048 33.531C146.303 33.9128 146.112 34.6766 145.666 35.1858C144.966 36.0132 144.775 36.0132 143.948 35.1858C143.439 34.6766 143.248 33.9765 143.439 33.5946C144.011 32.7035 145.539 32.7035 146.048 33.531Z" fill="#1E1E1E"/>
<path d="M150.185 34.3585C150.185 37.5409 150.313 38.0501 151.331 37.8591C152.031 37.7318 152.54 36.9044 152.731 35.2496C153.113 32.1308 154.259 32.1308 154.641 35.2496C154.832 36.9044 155.341 37.7318 156.105 37.8591C156.996 38.0501 157.187 37.6045 157.187 34.8677C157.187 31.1761 156.677 30.6669 152.922 30.6669H150.185V34.3585Z" fill="#1E1E1E"/>
<path d="M159.478 31.1759C157.95 32.3215 158.523 33.9764 160.687 34.8038C162.851 35.6313 162.66 36.2677 160.369 35.9495C158.841 35.6949 158.46 35.8858 158.587 36.6496C158.714 37.2861 159.605 37.7316 161.069 37.8589C164.952 38.1772 166.161 34.8675 162.597 33.5309C160.56 32.7671 160.56 32.0033 162.597 32.4488C163.87 32.6398 164.188 32.5125 164.061 31.6851C163.806 30.3485 161.005 30.0302 159.478 31.1759Z" fill="#1E1E1E"/>
<path d="M180.545 31.4943C179.209 32.9582 179.145 35.6951 180.482 36.9681C181.755 38.3047 185.828 38.3683 185.828 37.0317C185.828 36.3952 185.192 36.077 183.919 36.077C182.9 36.077 182.009 35.7588 182.009 35.4405C182.009 35.0586 183.028 34.804 184.237 34.804C185.956 34.804 186.465 34.5495 186.465 33.6584C186.465 32.1308 184.492 30.3487 182.837 30.3487C182.137 30.3487 181.118 30.8579 180.545 31.4943ZM183.919 32.8946C183.919 33.2128 183.473 33.5311 182.964 33.5311C182.455 33.5311 182.009 33.2128 182.009 32.8946C182.009 32.5127 182.455 32.2581 182.964 32.2581C183.473 32.2581 183.919 32.5127 183.919 32.8946Z" fill="#1E1E1E"/>
<path d="M189.838 30.7941C187.738 31.0487 187.738 31.1123 187.738 34.5493C187.738 37.5408 187.865 37.9863 189.011 37.9863C190.029 37.9863 190.284 37.5408 190.284 35.695C190.284 33.9765 190.602 33.34 191.557 33.0854C192.702 32.7672 193.466 30.2213 192.384 30.4758C192.066 30.4758 190.92 30.6668 189.838 30.7941Z" fill="#1E1E1E"/>
<path d="M166.097 34.4857C166.097 37.5408 166.225 37.9863 167.37 37.9863C168.516 37.9863 168.643 37.5408 168.643 34.4857C168.643 31.4306 168.516 30.985 167.37 30.985C166.225 30.985 166.097 31.4306 166.097 34.4857Z" fill="#1E1E1E"/>
<path d="M196.648 34.4857C196.648 37.5408 196.776 37.9863 197.921 37.9863C199.067 37.9863 199.194 37.5408 199.194 34.4857C199.194 31.4306 199.067 30.985 197.921 30.985C196.776 30.985 196.648 31.4306 196.648 34.4857Z" fill="#1E1E1E"/>
<path d="M220.326 31.7489C218.925 33.1492 219.434 35.9497 221.217 37.159C222.744 38.1138 223.062 38.1138 224.59 37.2863C226.436 36.268 227.136 33.4038 225.863 31.8762C224.972 30.7942 221.408 30.6669 220.326 31.7489ZM224.335 34.1676C224.335 35.1859 223.953 35.8224 223.19 35.9497C221.98 36.2043 221.153 34.6768 221.726 33.1492C222.299 31.558 224.335 32.3218 224.335 34.1676Z" fill="#0C89B5"/>
<path d="M228.472 34.2311C228.472 36.5224 228.727 37.3499 229.364 37.3499C230 37.3499 230.382 36.5224 230.509 34.9312C230.637 33.0854 230.955 32.5762 231.973 32.5762C232.991 32.5762 233.31 33.0854 233.437 34.9312C233.564 36.5224 233.946 37.3499 234.583 37.3499C235.219 37.3499 235.474 36.6497 235.474 34.9312C235.474 31.5579 234.901 31.0487 231.464 31.1123L228.472 31.176V34.2311Z" fill="#0C89B5"/>
<path d="M238.147 31.7489C236.81 33.0855 237.256 35.9497 238.974 37.0954C240.693 38.1774 242.539 38.1137 242.984 36.8408C243.112 36.3316 242.539 36.077 241.266 36.077C240.184 36.077 239.293 35.7588 239.293 35.4405C239.293 35.0586 240.311 34.804 241.52 34.804C243.239 34.804 243.748 34.5494 243.748 33.6584C243.748 32.0672 242.475 30.9851 240.566 30.9851C239.675 30.9851 238.593 31.3034 238.147 31.7489ZM241.839 32.8946C241.839 33.2128 241.266 33.5311 240.566 33.5311C239.866 33.5311 239.293 33.2128 239.293 32.8946C239.293 32.5127 239.866 32.2581 240.566 32.2581C241.266 32.2581 241.839 32.5127 241.839 32.8946Z" fill="#0C89B5"/>
</g>
<defs>
<clipPath id="clip0_1_6">
<rect width="247" height="42" fill="white"/>
</clipPath>
</defs>
</svg>
