<svg width="225" height="73" viewBox="0 0 225 73" fill="none" xmlns="http://www.w3.org/2000/svg">
<g clip-path="url(#clip0_1_39)">
<path fill-rule="evenodd" clip-rule="evenodd" d="M181.548 56.2789H186.995V58.6743H187.077C187.984 56.857 189.14 55.8679 191.201 55.8679C191.78 55.8679 192.358 55.9496 192.936 56.1142V61.1489C192.358 60.9001 191.78 60.7354 190.625 60.7354C188.396 60.7354 187.24 62.0563 187.24 65.275V71.1328H181.547V56.2789H181.548Z" fill="#2B568B"/>
<path fill-rule="evenodd" clip-rule="evenodd" d="M0 9.15946C0 4.20898 20.7131 0 46.2121 0C71.794 0 92.4242 4.20898 92.4242 9.15946C92.4242 14.0283 71.794 18.1543 46.2121 18.1543C20.7131 18.1556 0 14.0295 0 9.15946ZM48.4404 17.6604C62.6346 16.753 73.9394 12.3794 73.7747 7.51058C73.5271 2.64178 61.8918 -0.329272 47.6976 0.578124C33.5035 1.56847 22.1157 5.9421 22.3633 10.8109C22.5292 15.6797 34.2462 18.6507 48.4404 17.6604Z" fill="#C82E38"/>
<path fill-rule="evenodd" clip-rule="evenodd" d="M53.0616 54.7934V0.495117L40.6835 17.9066V72.6184L53.0616 54.7934Z" fill="#C82E38"/>
<path fill-rule="evenodd" clip-rule="evenodd" d="M68.3278 28.2238H62.0564V22.5293H81.5316V28.2238H75.2603V44.9755H68.3278V28.2238Z" fill="#2B568B"/>
<path fill-rule="evenodd" clip-rule="evenodd" d="M78.8082 29.7079H84.4184V32.1009H84.5014C85.4088 30.2848 86.6467 29.2944 88.7921 29.2944C89.3702 29.2944 89.9471 29.3774 90.4422 29.542V34.3279H88.2139C85.9027 34.3279 84.666 35.6488 84.666 38.9491V44.9741H78.8069V29.7079H78.8082Z" fill="#2B568B"/>
<path fill-rule="evenodd" clip-rule="evenodd" d="M99.4383 39.5285C99.3554 41.097 98.2834 41.9214 96.9625 41.9214C95.8904 41.9214 95.1477 41.1786 95.1477 40.4359C95.1477 39.4468 95.8075 39.115 97.1284 38.7857C97.9528 38.6211 98.6968 38.4539 99.4396 38.1246V39.5285H99.4383ZM105.05 35.2378C105.05 32.3497 105.05 29.2957 97.7882 29.2957C94.1573 29.2957 90.1142 29.9568 89.9483 34.3291H95.3123C95.3953 33.6693 95.7245 32.7607 97.5406 32.7607C98.448 32.7607 99.4383 33.0912 99.4383 34.1632C99.4383 35.1536 98.6139 35.3182 97.7882 35.4841C94.8171 36.061 89.2056 35.8964 89.2056 40.6822C89.2056 43.8996 91.6814 45.3034 94.5695 45.3034C96.4673 45.3034 98.2834 44.8925 99.52 43.4886H99.6017C99.52 43.8996 99.6017 44.5606 99.7676 44.9741H105.708C105.049 43.9851 105.049 42.6629 105.049 41.5066L105.05 35.2378ZM106.948 29.7079H112.559V31.6057C113.715 30.1202 115.283 29.2944 117.594 29.2944C120.316 29.2944 122.791 30.9446 122.791 34.4938V44.9741H117.016V36.9709C117.016 35.1536 116.769 33.9156 115.034 33.9156C114.045 33.9156 112.724 34.4108 112.724 36.8854V44.9741H106.948V29.7079ZM133.026 34.0816C133.026 33.5864 132.777 33.2571 132.365 32.9266C131.978 32.6559 131.516 32.5119 131.044 32.5144C130.22 32.5144 129.312 32.679 129.312 33.6693C129.312 34.1645 129.641 34.3291 129.973 34.4938C130.962 34.906 133.191 34.989 135.088 35.6488C137.07 36.3086 138.802 37.4636 138.802 39.9394C138.802 44.1497 134.677 45.3034 130.962 45.3034C127.413 45.3034 123.452 43.8996 123.37 39.9394H128.899C128.98 40.4359 129.231 40.9311 129.641 41.2603C129.973 41.5896 130.466 41.7568 131.21 41.7568C131.954 41.7568 133.192 41.425 133.192 40.6005C133.192 39.6931 132.695 39.4468 129.975 38.9504C125.518 38.2076 123.701 36.8037 123.701 34.1645C123.701 30.2861 127.911 29.2957 130.964 29.2957C134.264 29.2957 138.224 30.2031 138.389 34.0816H133.026ZM149.941 37.3002C149.941 38.9504 149.612 41.097 147.467 41.097C145.238 41.097 144.909 38.9504 144.909 37.3002C144.909 35.65 145.238 33.5034 147.467 33.5034C149.612 33.5047 149.941 35.65 149.941 37.3002ZM155.72 37.3002C155.72 33.0912 153.16 29.2957 147.467 29.2957C141.692 29.2957 139.131 33.0925 139.131 37.3002C139.131 41.5079 141.692 45.3034 147.467 45.3034C153.16 45.3047 155.72 41.5079 155.72 37.3002ZM166.612 35.4841C166.531 34.8243 166.281 34.3291 165.951 33.9986C165.538 33.6681 165.044 33.5034 164.466 33.5034C162.238 33.5034 161.908 35.4841 161.908 37.3002C161.908 39.1967 162.238 41.097 164.466 41.097C165.705 41.097 166.612 40.0224 166.694 38.8687H172.304C171.726 42.9934 168.426 45.3047 164.301 45.3047C159.762 45.3047 156.048 42.169 156.048 37.3015C156.048 32.5156 159.762 29.297 164.301 29.297C168.344 29.297 171.726 31.2777 172.141 35.4867H166.612V35.4841ZM178.248 35.5671C178.494 33.9169 179.566 33.0083 181.302 33.0083C182.787 33.0083 183.859 34.1632 183.859 35.5671H178.248ZM189.387 38.6211C189.387 32.6777 186.829 29.2944 180.722 29.2944C175.937 29.2944 172.636 32.9253 172.636 37.3819C172.636 42.414 176.347 45.3034 181.219 45.3034C184.684 45.3034 187.901 43.8179 189.059 40.5176H183.612C183.198 41.2603 182.126 41.5896 181.219 41.5896C179.401 41.5896 178.412 40.3529 178.248 38.6211H189.387ZM199.787 39.5285C199.702 41.097 198.63 41.9214 197.309 41.9214C196.32 41.9214 195.495 41.1786 195.495 40.4359C195.495 39.4468 196.237 39.115 197.477 38.7857C198.301 38.6211 199.045 38.4539 199.788 38.1246L199.787 39.5285ZM205.397 35.2378C205.397 32.3497 205.479 29.2957 198.134 29.2957C194.504 29.2957 190.459 29.9568 190.294 34.3291H195.658C195.74 33.6693 196.072 32.7607 197.886 32.7607C198.794 32.7607 199.785 33.0912 199.785 34.1632C199.785 35.1536 198.961 35.3182 198.217 35.4841C195.246 36.061 189.55 35.8964 189.55 40.6822C189.55 43.8996 192.025 45.3034 194.997 45.3034C196.814 45.3034 198.629 44.8925 199.867 43.4886H199.949C199.867 43.8996 200.03 44.5606 200.113 44.9741H206.055C205.477 43.9851 205.394 42.6629 205.394 41.5066V35.2378H205.397ZM207.295 29.7079H212.905V31.6057H212.989C214.061 30.1202 215.628 29.2944 217.94 29.2944C220.662 29.2944 223.222 30.9446 223.222 34.4938V44.9741H217.362V36.9709C217.362 35.1536 217.115 33.9156 215.465 33.9156C214.473 33.9156 213.154 34.4108 213.154 36.8854V44.9741H207.293V29.7079H207.295ZM69.0706 63.7895C69.0706 64.3677 69.1535 64.8616 69.3182 65.1934C69.8133 66.5143 71.2159 66.8435 72.5368 66.8435C73.6088 66.8435 75.2603 66.43 75.2603 64.8615C75.2603 63.7078 74.3529 63.3786 70.5561 62.304C67.0899 61.3149 63.1285 60.4075 63.1285 55.9497C63.1285 50.915 67.5021 48.6892 71.9587 48.6892C76.7445 48.6892 80.9535 50.504 81.1181 55.868H74.7638C74.8455 55.0436 74.5162 54.4641 73.9381 54.1362C73.3612 53.7227 72.6185 53.558 71.9574 53.558C71.05 53.558 69.5645 53.8043 69.5645 55.0435C69.6461 56.612 72.7818 56.94 75.8358 57.7657C78.9715 58.6757 82.0255 60.077 82.0255 64.1201C82.0255 69.8159 76.8262 71.6306 71.9574 71.6306C69.3998 71.6306 62.3844 70.8062 62.3027 63.7908H69.0706V63.7895ZM87.8859 62.0577C88.1335 60.4075 89.1239 59.5001 90.774 59.5001C92.2596 59.5001 93.3316 60.6538 93.3316 62.0577H87.8859ZM98.7785 64.9458C98.7785 59.1683 96.221 55.868 90.2789 55.868C85.5747 55.868 82.439 59.4146 82.439 63.7078C82.439 68.74 85.9869 71.5477 90.774 71.5477C94.1573 71.5477 97.293 70.0622 98.448 66.8435H93.167C92.6705 67.5046 91.6814 67.8326 90.774 67.8326C88.9593 67.8326 87.9676 66.6789 87.8859 64.9458H98.7785ZM109.836 63.7078C109.836 65.4397 109.424 67.4217 107.361 67.4217C105.297 67.4217 104.885 65.4397 104.885 63.7078C104.885 61.893 105.297 59.994 107.361 59.994C109.424 59.994 109.836 61.893 109.836 63.7078ZM115.366 50.6686H109.671V57.8474H109.589C108.765 56.6108 107.197 55.868 105.546 55.868C100.513 55.868 99.192 60.1574 99.192 63.6249C99.192 67.3387 101.256 71.5464 105.463 71.5464C108.187 71.5464 109.096 70.4744 109.837 69.4828V71.1329H115.366V50.6686ZM126.177 61.8931C126.092 61.3149 125.928 60.8185 125.598 60.4892C125.185 60.1574 124.691 59.9927 124.113 59.9927C121.966 59.9927 121.638 61.8918 121.638 63.7066C121.638 65.5214 121.968 67.4204 124.113 67.4204C125.352 67.4204 126.259 66.3458 126.341 65.1921H131.788C131.21 69.2352 127.991 71.5464 124.031 71.5464C119.492 71.5464 115.942 68.4107 115.942 63.7066C115.942 59.0024 119.492 55.8667 124.031 55.8667C127.91 55.8667 131.21 57.7632 131.623 61.8918H126.177V61.8931ZM143.092 63.7078C143.092 65.2763 142.762 67.4217 140.617 67.4217C138.473 67.4217 138.224 65.275 138.224 63.7078C138.224 62.1406 138.473 59.994 140.617 59.994C142.762 59.994 143.092 62.1394 143.092 63.7078ZM148.787 63.7078C148.787 59.5831 146.227 55.868 140.617 55.868C135.007 55.868 132.531 59.5818 132.531 63.7078C132.531 67.8339 135.005 71.5477 140.617 71.5477C146.229 71.5477 148.787 67.8326 148.787 63.7078ZM149.612 49.2648H166.612V54.8789H156.38V57.6011H163.477V62.8004H156.38V71.1329H149.612V49.2648ZM174.699 63.7078C174.699 65.2763 174.369 67.4217 172.224 67.4217C170.079 67.4217 169.831 65.275 169.831 63.7078C169.831 62.1406 170.077 59.994 172.224 59.994C174.371 59.994 174.699 62.1394 174.699 63.7078ZM180.394 63.7078C180.394 59.5831 177.834 55.868 172.224 55.868C166.614 55.868 164.138 59.5818 164.138 63.7078C164.138 67.8339 166.612 71.5477 172.224 71.5477C177.836 71.5477 180.394 67.8326 180.394 63.7078ZM197.723 62.0577C197.969 60.4075 199.044 59.5001 200.777 59.5001C202.262 59.5001 203.335 60.6538 203.335 62.0577H197.723ZM208.945 64.9458C208.945 59.1683 206.306 55.868 200.198 55.868C195.412 55.868 192.111 59.4146 192.111 63.7078C192.111 68.74 195.823 71.5477 200.694 71.5477C204.241 71.5477 207.459 70.0622 208.616 66.8435H203.169C202.672 67.5046 201.6 67.8326 200.694 67.8326C198.877 67.8326 197.888 66.6789 197.723 64.9458H208.945Z" fill="#2B568B"/>
<path fill-rule="evenodd" clip-rule="evenodd" d="M212.329 63.2932L207.544 56.2791H213.98L215.63 59.1684L217.362 56.2791H223.633L218.847 63.2932L224.294 71.133H217.858L215.547 67.5034L213.401 71.133H206.965L212.329 63.2932Z" fill="#2B568B"/>
</g>
<defs>
<clipPath id="clip0_1_39">
<rect width="225" height="73" fill="white"/>
</clipPath>
</defs>
</svg>
