<svg width="246" height="59" viewBox="0 0 246 59" fill="none" xmlns="http://www.w3.org/2000/svg">
<g clip-path="url(#clip0_1_2)">
<path d="M216.087 19.7572C217.457 19.7572 218.585 19.0448 218.737 18.1245L220.09 2.8266C220.09 1.31455 218.318 0.0732422 216.091 0.0732422C213.866 0.0732422 212.097 1.31454 212.097 2.82686L213.448 18.1245C213.597 19.0446 214.725 19.7572 216.091 19.7572H216.087ZM207.819 24.5354C208.506 23.3504 208.454 22.0184 207.73 21.4267L195.156 12.6063C193.848 11.8492 191.888 12.7605 190.776 14.6899C189.659 16.6168 189.857 18.7689 191.161 19.5263L205.084 26.009C205.955 26.3316 207.141 25.7107 207.823 24.5264L207.819 24.5354ZM224.362 24.5272C225.048 25.7115 226.229 26.3327 227.1 26.0098L241.023 19.5271C242.335 18.77 242.522 16.6176 241.416 14.6907C240.298 12.7633 238.334 11.85 237.03 12.6072L224.455 21.4275C223.737 22.0184 223.683 23.3515 224.366 24.5363L224.362 24.5272ZM216.087 38.8666C217.457 38.8666 218.585 39.573 218.737 40.4941L220.09 55.7899C220.09 57.3065 218.318 58.5451 216.091 58.5451C213.866 58.5451 212.097 57.3065 212.097 55.7899L213.448 40.4941C213.597 39.573 214.725 38.8666 216.091 38.8666H216.087ZM224.362 34.0873C225.048 32.8998 226.229 32.284 227.1 32.6104L241.023 39.0888C242.335 39.8467 242.522 42.001 241.416 43.9295C240.298 45.8507 238.334 46.7664 237.03 46.0104L224.455 37.1982C223.737 36.6026 223.683 35.2688 224.366 34.0848H224.361M207.819 34.0857C208.506 35.2688 208.454 36.6026 207.73 37.1993L195.156 46.0112C193.848 46.7672 191.888 45.8515 190.776 43.9304C189.659 42.0018 189.857 39.8475 191.161 39.0896L205.084 32.6113C205.955 32.2848 207.141 32.9006 207.823 34.0884H207.819" fill="#FDBA2E"/>
<path d="M136.773 37.1705C136.773 37.6399 136.731 38.1241 136.603 38.5493C136.069 40.3155 134.241 41.809 131.953 41.809C130.045 41.809 128.53 40.7254 128.53 38.4369C128.53 34.9343 132.385 33.967 136.774 33.9913L136.773 37.1705ZM143.656 31.0666C143.656 25.291 141.188 20.209 132.85 20.209C128.569 20.209 125.172 21.4113 123.318 22.4828L124.676 27.126C126.371 26.0561 129.072 25.1704 131.628 25.1704C135.857 25.1587 136.55 27.5657 136.55 29.1061V29.4707C127.33 29.4571 121.502 32.6496 121.502 39.153C121.502 43.127 124.47 46.849 129.63 46.849C132.801 46.849 135.457 45.5834 137.046 43.5541H137.203C137.203 43.5541 138.254 47.9598 144.06 46.2741C143.757 44.4419 143.657 42.4861 143.657 40.1342L143.656 31.0666ZM0 12.3436C0 12.3436 6.025 37.0315 6.9871 41.0382C8.1094 45.7149 10.1321 47.4366 15.9611 46.2741L19.723 30.9686C20.6769 27.165 21.3153 24.4531 21.9299 20.5878H22.0369C22.4684 24.4941 23.0806 27.1767 23.8656 30.9812C23.8656 30.9812 25.3962 37.93 26.1814 41.5786C26.9674 45.2261 29.1553 47.5264 34.8656 46.2741L43.8298 12.3425H36.5944L33.5326 27.0135C32.7094 31.2822 31.9632 34.6215 31.3873 38.5258H31.285C30.7618 34.6559 30.0955 31.4528 29.2595 27.2927L26.0744 12.3425H18.5344L15.1254 26.9158C14.1606 31.3455 13.2558 34.9209 12.6827 38.6953H12.5784C11.99 35.1412 11.2066 30.6457 10.3589 26.3598C10.3589 26.3598 8.33511 15.9357 7.6233 12.3425L0 12.3436ZM57.5163 37.1705C57.5163 37.6399 57.4746 38.1241 57.3441 38.5493C56.8119 40.3155 54.9821 41.809 52.6944 41.809C50.7866 41.809 49.2737 40.7254 49.2737 38.4369C49.2737 34.9343 53.1278 33.967 57.5172 33.9913L57.5163 37.1705ZM64.3989 31.0666C64.3989 25.291 61.931 20.209 53.594 20.209C49.3125 20.209 45.9126 21.4113 44.0594 22.4828L45.4158 27.126C47.1102 26.0561 49.8112 25.1704 52.368 25.1704C56.6006 25.1587 57.2933 27.5657 57.2933 29.1061V29.4707C48.0696 29.4571 42.2441 32.6496 42.2441 39.153C42.2441 43.127 45.2109 46.849 50.3671 46.849C53.5421 46.849 56.1962 45.5834 57.7874 43.5541H57.9424C57.9424 43.5541 58.997 47.9598 64.8012 46.2741C64.4977 44.4419 64.3989 42.4861 64.3989 40.1342V31.0666ZM75.8856 39.0714V12.3436H68.994V46.2752H75.8856V39.0714ZM166.04 12.3436V37.3743C166.04 40.8269 166.691 43.2432 168.079 44.722C169.295 46.0149 171.293 46.8517 173.689 46.8517C175.728 46.8517 177.731 46.4627 178.677 46.112L178.588 40.7281C177.885 40.9001 177.077 41.0393 175.971 41.0393C173.622 41.0393 172.837 39.5349 172.837 36.4368V26.8596H178.838V20.3665H172.837V12.3436H166.04ZM148.252 20.7846V46.2752H155.361V33.2236C155.361 32.518 155.403 31.9034 155.515 31.3412C156.041 28.6058 158.132 26.8596 161.135 26.8596C161.958 26.8596 162.547 26.9491 163.185 27.0397V20.3665C162.65 20.2598 162.286 20.2098 161.62 20.2098C158.967 20.2098 155.948 21.9217 154.682 25.5937H154.49V20.7846H148.252ZM80.711 20.7846V46.2752H87.6373V31.3275C87.6373 30.6261 87.7197 29.8842 87.9626 29.2412C88.5366 27.7362 89.9373 25.9736 92.1723 25.9736C94.9685 25.9736 96.2742 28.3364 96.2742 31.7465V46.2733H103.195V31.1435C103.195 30.4743 103.286 29.6675 103.484 29.0774C104.053 27.3645 105.561 25.9717 107.639 25.9717C110.473 25.9717 111.833 28.293 111.833 32.3068V46.2725H118.758V31.2584C118.758 23.3415 114.738 20.2074 110.199 20.2074C108.191 20.2074 106.604 20.7104 105.169 21.5898C103.964 22.3322 102.883 23.384 101.94 24.7667H101.838C100.743 22.0197 98.1681 20.2087 94.8124 20.2087C90.5014 20.2087 88.5639 22.3941 87.3886 24.2473H87.2854V20.7838L80.711 20.7846Z" fill="#1A75D0"/>
<path d="M244.515 45.0356H244.62C244.759 45.0356 244.848 44.9783 244.848 44.8932C244.848 44.7963 244.764 44.7436 244.635 44.7436C244.591 44.7436 244.546 44.7526 244.516 44.7526V45.0381V45.0354L244.515 45.0356ZM244.499 45.7229H244.131V44.5233C244.215 44.507 244.41 44.4778 244.659 44.4778C244.93 44.4778 245.052 44.516 245.141 44.576C245.216 44.6284 245.27 44.7179 245.27 44.8388C245.27 44.9619 245.157 45.0662 244.99 45.1118V45.1271C245.126 45.1634 245.2 45.2622 245.239 45.4355C245.276 45.6085 245.299 45.6792 245.323 45.7237H244.906C244.869 45.6792 244.848 45.573 244.823 45.4671C244.8 45.3457 244.742 45.2848 244.619 45.2848H244.499V45.7229ZM244.652 44.1325C244.123 44.1325 243.724 44.5632 243.724 45.1123C243.724 45.6473 244.124 46.0837 244.666 46.0837C245.21 46.0927 245.61 45.6475 245.61 45.1036C245.61 44.5621 245.21 44.1325 244.66 44.1325H244.652ZM244.675 43.8069C245.412 43.8069 246 44.3871 246 45.1033C246 45.828 245.412 46.409 244.665 46.409C243.918 46.409 243.323 45.8271 243.323 45.1036C243.323 44.3871 243.919 43.8072 244.665 43.8072H244.674" fill="#FDBA2E"/>
</g>
<defs>
<clipPath id="clip0_1_2">
<rect width="246" height="59" fill="white"/>
</clipPath>
</defs>
</svg>
